<svg xmlns="http://www.w3.org/2000/svg" xmlns:xlink="http://www.w3.org/1999/xlink" width="1920" zoomAndPan="magnify" viewBox="0 0 1440 809.999993" height="1080" preserveAspectRatio="xMidYMid meet" version="1.0"><defs><linearGradient x1="960" gradientTransform="matrix(0.75, 0, 0, 0.75, 0.00000622222, 0.00002)" y1="0" x2="960" gradientUnits="userSpaceOnUse" y2="1079.999955" id="808dfa3cb5"><stop stop-opacity="1" stop-color="rgb(49.398804%, 66.699219%, 56.898499%)" offset="0"/><stop stop-opacity="1" stop-color="rgb(49.539185%, 66.75415%, 56.97937%)" offset="0.0078125"/><stop stop-opacity="1" stop-color="rgb(49.821472%, 66.867065%, 57.141113%)" offset="0.015625"/><stop stop-opacity="1" stop-color="rgb(50.10376%, 66.978455%, 57.302856%)" offset="0.0234375"/><stop stop-opacity="1" stop-color="rgb(50.384521%, 67.089844%, 57.4646%)" offset="0.03125"/><stop stop-opacity="1" stop-color="rgb(50.666809%, 67.202759%, 57.626343%)" offset="0.0390625"/><stop stop-opacity="1" stop-color="rgb(50.949097%, 67.314148%, 57.788086%)" offset="0.046875"/><stop stop-opacity="1" stop-color="rgb(51.231384%, 67.425537%, 57.949829%)" offset="0.0546875"/><stop stop-opacity="1" stop-color="rgb(51.512146%, 67.538452%, 58.110046%)" offset="0.0625"/><stop stop-opacity="1" stop-color="rgb(51.794434%, 67.649841%, 58.27179%)" offset="0.0703125"/><stop stop-opacity="1" stop-color="rgb(52.076721%, 67.76123%, 58.433533%)" offset="0.078125"/><stop stop-opacity="1" stop-color="rgb(52.359009%, 67.874146%, 58.595276%)" offset="0.0859375"/><stop stop-opacity="1" stop-color="rgb(52.639771%, 67.985535%, 58.757019%)" offset="0.09375"/><stop stop-opacity="1" stop-color="rgb(52.922058%, 68.096924%, 58.918762%)" offset="0.101562"/><stop stop-opacity="1" stop-color="rgb(53.204346%, 68.209839%, 59.080505%)" offset="0.109375"/><stop stop-opacity="1" stop-color="rgb(53.486633%, 68.321228%, 59.240723%)" offset="0.117188"/><stop stop-opacity="1" stop-color="rgb(53.767395%, 68.432617%, 59.402466%)" offset="0.125"/><stop stop-opacity="1" stop-color="rgb(54.049683%, 68.545532%, 59.564209%)" offset="0.132812"/><stop stop-opacity="1" stop-color="rgb(54.33197%, 68.656921%, 59.725952%)" offset="0.140625"/><stop stop-opacity="1" stop-color="rgb(54.614258%, 68.768311%, 59.887695%)" offset="0.148437"/><stop stop-opacity="1" stop-color="rgb(54.89502%, 68.881226%, 60.049438%)" offset="0.15625"/><stop stop-opacity="1" stop-color="rgb(55.177307%, 68.992615%, 60.211182%)" offset="0.164062"/><stop stop-opacity="1" stop-color="rgb(55.459595%, 69.10553%, 60.371399%)" offset="0.171875"/><stop stop-opacity="1" stop-color="rgb(55.740356%, 69.216919%, 60.533142%)" offset="0.179687"/><stop stop-opacity="1" stop-color="rgb(56.022644%, 69.328308%, 60.694885%)" offset="0.1875"/><stop stop-opacity="1" stop-color="rgb(56.304932%, 69.441223%, 60.856628%)" offset="0.195312"/><stop stop-opacity="1" stop-color="rgb(56.587219%, 69.552612%, 61.018372%)" offset="0.203125"/><stop stop-opacity="1" stop-color="rgb(56.867981%, 69.664001%, 61.180115%)" offset="0.210938"/><stop stop-opacity="1" stop-color="rgb(57.150269%, 69.776917%, 61.341858%)" offset="0.21875"/><stop stop-opacity="1" stop-color="rgb(57.432556%, 69.888306%, 61.502075%)" offset="0.226562"/><stop stop-opacity="1" stop-color="rgb(57.714844%, 69.999695%, 61.663818%)" offset="0.234375"/><stop stop-opacity="1" stop-color="rgb(57.995605%, 70.11261%, 61.825562%)" offset="0.242188"/><stop stop-opacity="1" stop-color="rgb(58.277893%, 70.223999%, 61.987305%)" offset="0.25"/><stop stop-opacity="1" stop-color="rgb(58.560181%, 70.335388%, 62.149048%)" offset="0.257812"/><stop stop-opacity="1" stop-color="rgb(58.842468%, 70.448303%, 62.310791%)" offset="0.265625"/><stop stop-opacity="1" stop-color="rgb(59.12323%, 70.559692%, 62.472534%)" offset="0.273437"/><stop stop-opacity="1" stop-color="rgb(59.405518%, 70.671082%, 62.632751%)" offset="0.28125"/><stop stop-opacity="1" stop-color="rgb(59.687805%, 70.783997%, 62.794495%)" offset="0.289062"/><stop stop-opacity="1" stop-color="rgb(59.968567%, 70.895386%, 62.956238%)" offset="0.296875"/><stop stop-opacity="1" stop-color="rgb(60.250854%, 71.006775%, 63.117981%)" offset="0.304687"/><stop stop-opacity="1" stop-color="rgb(60.533142%, 71.11969%, 63.279724%)" offset="0.3125"/><stop stop-opacity="1" stop-color="rgb(60.81543%, 71.231079%, 63.441467%)" offset="0.320312"/><stop stop-opacity="1" stop-color="rgb(61.096191%, 71.342468%, 63.60321%)" offset="0.328125"/><stop stop-opacity="1" stop-color="rgb(61.378479%, 71.455383%, 63.763428%)" offset="0.335937"/><stop stop-opacity="1" stop-color="rgb(61.660767%, 71.566772%, 63.925171%)" offset="0.34375"/><stop stop-opacity="1" stop-color="rgb(61.943054%, 71.678162%, 64.086914%)" offset="0.351562"/><stop stop-opacity="1" stop-color="rgb(62.223816%, 71.791077%, 64.248657%)" offset="0.359375"/><stop stop-opacity="1" stop-color="rgb(62.506104%, 71.902466%, 64.4104%)" offset="0.367187"/><stop stop-opacity="1" stop-color="rgb(62.788391%, 72.013855%, 64.572144%)" offset="0.375"/><stop stop-opacity="1" stop-color="rgb(63.070679%, 72.12677%, 64.733887%)" offset="0.382812"/><stop stop-opacity="1" stop-color="rgb(63.35144%, 72.238159%, 64.894104%)" offset="0.390625"/><stop stop-opacity="1" stop-color="rgb(63.633728%, 72.349548%, 65.055847%)" offset="0.398438"/><stop stop-opacity="1" stop-color="rgb(63.916016%, 72.462463%, 65.21759%)" offset="0.40625"/><stop stop-opacity="1" stop-color="rgb(64.198303%, 72.573853%, 65.379333%)" offset="0.414062"/><stop stop-opacity="1" stop-color="rgb(64.479065%, 72.685242%, 65.541077%)" offset="0.421875"/><stop stop-opacity="1" stop-color="rgb(64.761353%, 72.798157%, 65.70282%)" offset="0.429688"/><stop stop-opacity="1" stop-color="rgb(65.04364%, 72.909546%, 65.864563%)" offset="0.4375"/><stop stop-opacity="1" stop-color="rgb(65.324402%, 73.020935%, 66.02478%)" offset="0.445312"/><stop stop-opacity="1" stop-color="rgb(65.606689%, 73.13385%, 66.186523%)" offset="0.453125"/><stop stop-opacity="1" stop-color="rgb(65.888977%, 73.245239%, 66.348267%)" offset="0.460938"/><stop stop-opacity="1" stop-color="rgb(66.171265%, 73.356628%, 66.51001%)" offset="0.46875"/><stop stop-opacity="1" stop-color="rgb(66.452026%, 73.469543%, 66.671753%)" offset="0.476562"/><stop stop-opacity="1" stop-color="rgb(66.734314%, 73.580933%, 66.833496%)" offset="0.484375"/><stop stop-opacity="1" stop-color="rgb(67.016602%, 73.692322%, 66.995239%)" offset="0.492188"/><stop stop-opacity="1" stop-color="rgb(67.298889%, 73.805237%, 67.155457%)" offset="0.5"/><stop stop-opacity="1" stop-color="rgb(67.579651%, 73.916626%, 67.3172%)" offset="0.507812"/><stop stop-opacity="1" stop-color="rgb(67.861938%, 74.028015%, 67.478943%)" offset="0.515625"/><stop stop-opacity="1" stop-color="rgb(68.144226%, 74.14093%, 67.640686%)" offset="0.523437"/><stop stop-opacity="1" stop-color="rgb(68.426514%, 74.252319%, 67.802429%)" offset="0.53125"/><stop stop-opacity="1" stop-color="rgb(68.707275%, 74.365234%, 67.964172%)" offset="0.539062"/><stop stop-opacity="1" stop-color="rgb(68.989563%, 74.476624%, 68.125916%)" offset="0.546875"/><stop stop-opacity="1" stop-color="rgb(69.271851%, 74.588013%, 68.287659%)" offset="0.554687"/><stop stop-opacity="1" stop-color="rgb(69.552612%, 74.700928%, 68.447876%)" offset="0.5625"/><stop stop-opacity="1" stop-color="rgb(69.8349%, 74.812317%, 68.609619%)" offset="0.570312"/><stop stop-opacity="1" stop-color="rgb(70.117188%, 74.923706%, 68.771362%)" offset="0.578125"/><stop stop-opacity="1" stop-color="rgb(70.399475%, 75.036621%, 68.933105%)" offset="0.585937"/><stop stop-opacity="1" stop-color="rgb(70.680237%, 75.14801%, 69.094849%)" offset="0.59375"/><stop stop-opacity="1" stop-color="rgb(70.962524%, 75.259399%, 69.256592%)" offset="0.601562"/><stop stop-opacity="1" stop-color="rgb(71.244812%, 75.372314%, 69.418335%)" offset="0.609375"/><stop stop-opacity="1" stop-color="rgb(71.5271%, 75.483704%, 69.578552%)" offset="0.617187"/><stop stop-opacity="1" stop-color="rgb(71.807861%, 75.595093%, 69.740295%)" offset="0.625"/><stop stop-opacity="1" stop-color="rgb(72.090149%, 75.708008%, 69.902039%)" offset="0.632812"/><stop stop-opacity="1" stop-color="rgb(72.372437%, 75.819397%, 70.063782%)" offset="0.640625"/><stop stop-opacity="1" stop-color="rgb(72.654724%, 75.930786%, 70.225525%)" offset="0.648437"/><stop stop-opacity="1" stop-color="rgb(72.935486%, 76.043701%, 70.387268%)" offset="0.65625"/><stop stop-opacity="1" stop-color="rgb(73.217773%, 76.15509%, 70.549011%)" offset="0.664062"/><stop stop-opacity="1" stop-color="rgb(73.500061%, 76.266479%, 70.709229%)" offset="0.671875"/><stop stop-opacity="1" stop-color="rgb(73.782349%, 76.379395%, 70.870972%)" offset="0.679687"/><stop stop-opacity="1" stop-color="rgb(74.06311%, 76.490784%, 71.032715%)" offset="0.6875"/><stop stop-opacity="1" stop-color="rgb(74.345398%, 76.602173%, 71.194458%)" offset="0.695312"/><stop stop-opacity="1" stop-color="rgb(74.627686%, 76.715088%, 71.356201%)" offset="0.703125"/><stop stop-opacity="1" stop-color="rgb(74.908447%, 76.826477%, 71.517944%)" offset="0.710937"/><stop stop-opacity="1" stop-color="rgb(75.190735%, 76.937866%, 71.679688%)" offset="0.71875"/><stop stop-opacity="1" stop-color="rgb(75.473022%, 77.050781%, 71.839905%)" offset="0.726562"/><stop stop-opacity="1" stop-color="rgb(75.75531%, 77.16217%, 72.001648%)" offset="0.734375"/><stop stop-opacity="1" stop-color="rgb(75.996399%, 77.258301%, 72.140503%)" offset="0.75"/><stop stop-opacity="1" stop-color="rgb(76.098633%, 77.2995%, 72.198486%)" offset="0.8125"/><stop stop-opacity="1" stop-color="rgb(76.098633%, 77.2995%, 72.198486%)" offset="0.828125"/><stop stop-opacity="1" stop-color="rgb(76.234436%, 77.427673%, 72.363281%)" offset="0.835938"/><stop stop-opacity="1" stop-color="rgb(76.550293%, 77.726746%, 72.743225%)" offset="0.839844"/><stop stop-opacity="1" stop-color="rgb(76.730347%, 77.897644%, 72.9599%)" offset="0.84375"/><stop stop-opacity="1" stop-color="rgb(76.908875%, 78.067017%, 73.175049%)" offset="0.847656"/><stop stop-opacity="1" stop-color="rgb(77.088928%, 78.237915%, 73.391724%)" offset="0.851562"/><stop stop-opacity="1" stop-color="rgb(77.267456%, 78.407288%, 73.606873%)" offset="0.855469"/><stop stop-opacity="1" stop-color="rgb(77.44751%, 78.578186%, 73.823547%)" offset="0.859375"/><stop stop-opacity="1" stop-color="rgb(77.626038%, 78.747559%, 74.038696%)" offset="0.863281"/><stop stop-opacity="1" stop-color="rgb(77.806091%, 78.918457%, 74.255371%)" offset="0.867188"/><stop stop-opacity="1" stop-color="rgb(77.984619%, 79.08783%, 74.47052%)" offset="0.871094"/><stop stop-opacity="1" stop-color="rgb(78.164673%, 79.258728%, 74.687195%)" offset="0.875"/><stop stop-opacity="1" stop-color="rgb(78.343201%, 79.428101%, 74.902344%)" offset="0.878906"/><stop stop-opacity="1" stop-color="rgb(78.521729%, 79.597473%, 75.119019%)" offset="0.882812"/><stop stop-opacity="1" stop-color="rgb(78.700256%, 79.766846%, 75.334167%)" offset="0.886719"/><stop stop-opacity="1" stop-color="rgb(78.88031%, 79.937744%, 75.550842%)" offset="0.890625"/><stop stop-opacity="1" stop-color="rgb(79.058838%, 80.107117%, 75.765991%)" offset="0.894531"/><stop stop-opacity="1" stop-color="rgb(79.238892%, 80.278015%, 75.982666%)" offset="0.898438"/><stop stop-opacity="1" stop-color="rgb(79.417419%, 80.447388%, 76.199341%)" offset="0.902344"/><stop stop-opacity="1" stop-color="rgb(79.597473%, 80.618286%, 76.416016%)" offset="0.90625"/><stop stop-opacity="1" stop-color="rgb(79.776001%, 80.787659%, 76.631165%)" offset="0.910156"/><stop stop-opacity="1" stop-color="rgb(79.956055%, 80.958557%, 76.847839%)" offset="0.914062"/><stop stop-opacity="1" stop-color="rgb(80.134583%, 81.12793%, 77.062988%)" offset="0.917969"/><stop stop-opacity="1" stop-color="rgb(80.314636%, 81.298828%, 77.279663%)" offset="0.921875"/><stop stop-opacity="1" stop-color="rgb(80.493164%, 81.468201%, 77.494812%)" offset="0.925781"/><stop stop-opacity="1" stop-color="rgb(80.673218%, 81.639099%, 77.711487%)" offset="0.929688"/><stop stop-opacity="1" stop-color="rgb(80.851746%, 81.808472%, 77.926636%)" offset="0.933594"/><stop stop-opacity="1" stop-color="rgb(81.031799%, 81.97937%, 78.143311%)" offset="0.9375"/><stop stop-opacity="1" stop-color="rgb(81.210327%, 82.148743%, 78.358459%)" offset="0.941406"/><stop stop-opacity="1" stop-color="rgb(81.390381%, 82.318115%, 78.575134%)" offset="0.945312"/><stop stop-opacity="1" stop-color="rgb(81.568909%, 82.487488%, 78.790283%)" offset="0.949219"/><stop stop-opacity="1" stop-color="rgb(81.748962%, 82.658386%, 79.006958%)" offset="0.953125"/><stop stop-opacity="1" stop-color="rgb(81.92749%, 82.827759%, 79.222107%)" offset="0.957031"/><stop stop-opacity="1" stop-color="rgb(82.107544%, 82.998657%, 79.438782%)" offset="0.960938"/><stop stop-opacity="1" stop-color="rgb(82.286072%, 83.16803%, 79.653931%)" offset="0.964844"/><stop stop-opacity="1" stop-color="rgb(82.466125%, 83.338928%, 79.870605%)" offset="0.96875"/><stop stop-opacity="1" stop-color="rgb(82.644653%, 83.508301%, 80.08728%)" offset="0.972656"/><stop stop-opacity="1" stop-color="rgb(82.823181%, 83.679199%, 80.303955%)" offset="0.976562"/><stop stop-opacity="1" stop-color="rgb(83.001709%, 83.848572%, 80.519104%)" offset="0.980469"/><stop stop-opacity="1" stop-color="rgb(83.181763%, 84.01947%, 80.735779%)" offset="0.984375"/><stop stop-opacity="1" stop-color="rgb(83.360291%, 84.188843%, 80.950928%)" offset="0.988281"/><stop stop-opacity="1" stop-color="rgb(83.540344%, 84.359741%, 81.167603%)" offset="0.992188"/><stop stop-opacity="1" stop-color="rgb(83.718872%, 84.529114%, 81.382751%)" offset="0.996094"/><stop stop-opacity="1" stop-color="rgb(83.898926%, 84.698486%, 81.599426%)" offset="1"/></linearGradient></defs><rect x="-144" width="1728" fill="#ffffff" y="-80.999999" height="971.999992" fill-opacity="1"/><rect x="-144" fill="url(#808dfa3cb5)" width="1728" y="-80.999999" height="971.999992"/><path fill="#2a2d32" d="M 233.640625 812.292969 C 255.445312 812.292969 281.285156 816.453125 289.429688 830.617188 C 298.84375 847.078125 260.988281 841.722656 266 858.527344 C 269.042969 868.804688 280.527344 871.617188 295.191406 871.617188 C 312.894531 871.617188 335.214844 867.519531 352.878906 867.519531 C 374.640625 867.519531 389.332031 873.746094 379.566406 901.535156 C 375.03125 914.394531 356.367188 918.054688 334.929688 918.054688 C 309.636719 918.054688 280.496094 912.960938 266.199219 911.894531 C 246.765625 910.476562 226.988281 907.558594 209.113281 901.738281 C 202.203125 899.503906 195.699219 896.863281 189.542969 893.746094 C 180.804688 889.277344 172.882812 883.859375 166.175781 877.152344 C 164.144531 875.121094 162.316406 873.15625 160.417969 871.121094 C 149.316406 859.203125 138.476562 847.484375 121.546875 839.222656 C 116.671875 836.785156 100.621094 827.300781 106.3125 821.75 C 108.179688 819.921875 111.953125 819.433594 115.863281 819.433594 C 119.769531 819.433594 123.820312 819.929688 126.226562 820.0625 C 135.101562 820.601562 169.09375 821.546875 158.59375 834.960938 C 155.414062 839.027344 151.414062 838.691406 146.203125 840.039062 C 143.089844 840.917969 138.820312 844.714844 141.867188 847.289062 C 143.496094 848.644531 147.214844 848.441406 149.316406 848.511719 C 151.3125 848.578125 153.34375 848.628906 155.375 848.628906 C 157.410156 848.628906 159.441406 848.585938 161.4375 848.441406 C 166.921875 848.039062 171.929688 845.871094 177.285156 845.398438 C 182.296875 844.925781 186.835938 844.992188 191.238281 842.6875 C 203.222656 836.453125 187.515625 821.21875 202.886719 815.734375 C 208.105469 813.917969 220.09375 812.304688 233.648438 812.304688 Z M 35.894531 713.308594 C 25.171875 713.308594 14.144531 714.425781 4.121094 715.605469 C 3.175781 715.738281 1.957031 715.875 0.671875 716.011719 L 0.671875 726.378906 C 2.097656 726.378906 3.515625 726.324219 4.828125 726.324219 C 6.140625 726.324219 7.339844 726.378906 8.324219 726.582031 C 15.027344 727.871094 18.613281 730.445312 25.859375 730.644531 C 26.25 730.652344 26.640625 730.660156 27.03125 730.660156 C 31.386719 730.660156 35.796875 730.015625 40.148438 729.761719 C 43.75 729.558594 47.230469 729.453125 50.636719 729.453125 C 60.988281 729.453125 70.691406 730.429688 81.386719 732.671875 C 100.417969 736.804688 119.175781 746.828125 138.070312 748.1875 C 139.292969 750.558594 139.96875 752.65625 139.902344 754.894531 C 139.699219 765.050781 93.585938 763.835938 124.871094 788.21875 C 131.777344 793.632812 184.195312 808.878906 151.550781 812.867188 C 150.179688 813.035156 148.761719 813.109375 147.296875 813.109375 C 136.738281 813.109375 124.195312 809.191406 113.492188 807.113281 C 104.078125 805.285156 94.933594 805.214844 85.722656 804.136719 C 85.183594 802.507812 84.847656 800.820312 84.777344 799.125 C 83.765625 783.273438 89.722656 774.667969 59.726562 771.621094 C 58.429688 771.496094 57.175781 771.425781 55.984375 771.425781 C 40.246094 771.425781 32.886719 782.15625 27.285156 792.476562 C 22.167969 802.082031 18.570312 811.308594 11.382812 811.308594 C 8.488281 811.308594 5.007812 809.808594 0.605469 806.230469 L 0.605469 859.464844 C 2.21875 859.726562 3.929688 859.867188 5.734375 859.867188 C 10.460938 859.867188 15.9375 858.929688 22.542969 856.824219 C 26.0625 870.640625 22.882812 906.335938 46.855469 916.496094 C 50.613281 918.085938 53.949219 918.761719 56.964844 918.761719 C 65.359375 918.761719 71.261719 913.5625 76.789062 908.570312 C 78.679688 906.875 80.511719 905.1875 82.410156 903.761719 C 92.683594 898.820312 104.609375 890.769531 116.824219 890.769531 C 119.492188 890.769531 122.183594 891.152344 124.871094 892.046875 C 127.375 892.71875 129.882812 893.464844 132.386719 894.347656 C 149.921875 898.75 175.929688 900.921875 190.488281 910.132812 C 196.179688 913.726562 197.867188 920.835938 204.304688 923.613281 C 206.507812 924.574219 208.941406 924.867188 211.46875 924.867188 C 215.644531 924.867188 220.070312 924.046875 224.171875 924.046875 C 224.96875 924.046875 225.75 924.078125 226.515625 924.152344 C 254.140625 926.59375 278.390625 937.558594 305.40625 941.085938 C 309.210938 941.597656 312.789062 941.8125 316.207031 941.8125 C 335.164062 941.8125 349.316406 935.136719 369.742188 934.042969 C 371.75 933.929688 373.6875 933.875 375.570312 933.875 C 402.992188 933.875 418.089844 945.363281 441.792969 953.417969 C 448.882812 955.804688 454.402344 956.871094 459.136719 956.871094 C 470.761719 956.871094 477.558594 950.433594 490.894531 941.429688 C 501.800781 934.050781 516.96875 914.273438 533.085938 913.660156 C 533.410156 913.652344 533.730469 913.644531 534.046875 913.644531 C 552.214844 913.644531 562.984375 932.367188 580.289062 936.890625 C 596.679688 941.226562 613.066406 947.734375 629.042969 952.472656 C 644.617188 957.148438 661.003906 958.902344 675.023438 966.226562 C 687.28125 972.527344 694.390625 983.570312 707.253906 989.257812 C 729.53125 999.144531 757.300781 993.59375 779.71875 1004.425781 C 782.832031 1005.984375 785.953125 1007.605469 789 1009.300781 C 800.511719 1015.597656 809.109375 1023.054688 818.800781 1030.230469 C 821.980469 1032.589844 824.679688 1033.464844 827.214844 1033.464844 C 832.78125 1033.464844 837.542969 1029.234375 844.796875 1027.050781 C 851.773438 1024.949219 873.441406 1029.355469 870.261719 1017.90625 C 864.433594 1016.960938 863.554688 1010.121094 860.105469 1007 C 858.410156 1005.511719 855.636719 1005.84375 853.804688 1004.085938 C 849.066406 999.347656 845.210938 997.3125 839.515625 993.1875 C 835.25 990.140625 834.304688 986.007812 830.84375 982.691406 C 826.511719 978.617188 821.433594 978.046875 816.070312 978.046875 C 813.992188 978.046875 811.859375 978.128906 809.722656 978.128906 C 806.019531 978.128906 802.261719 977.867188 798.605469 976.457031 C 786.6875 971.851562 784.859375 964.191406 770.230469 960.132812 C 765.371094 958.761719 760.984375 958.308594 756.753906 958.308594 C 749.730469 958.308594 743.136719 959.539062 735.496094 959.796875 C 728.632812 960.007812 723.164062 963.027344 717.597656 963.027344 C 714.148438 963.027344 710.667969 961.875 706.78125 958.167969 C 695.480469 947.410156 706.632812 943.945312 725.511719 943.945312 C 756.0625 943.945312 806.851562 953.007812 815.476562 954.84375 C 824.441406 956.742188 839.296875 962.722656 851.292969 962.722656 C 858.148438 962.722656 864.074219 960.765625 867.417969 954.980469 C 876.292969 939.53125 843.582031 925.925781 828.550781 923.34375 C 825.453125 922.8125 822.707031 922.585938 820.210938 922.585938 C 808.386719 922.585938 802.09375 927.664062 790.355469 929.511719 C 788.9375 929.726562 787.226562 929.832031 785.277344 929.832031 C 758.613281 929.832031 687.550781 910.550781 730.828125 898.625 C 739.671875 896.195312 753.128906 892.855469 765.027344 892.855469 C 767.703125 892.855469 770.300781 893.019531 772.75 893.410156 C 780.066406 894.632812 789.480469 900.65625 797.46875 902.488281 C 801.980469 903.507812 809.574219 905.339844 815.917969 905.339844 C 821.753906 905.339844 826.53125 903.785156 826.855469 898.625 C 826.988281 895.847656 814.800781 894.835938 812.566406 894.492188 C 805.996094 893.546875 799.972656 890.492188 793.671875 889.75 C 789.742188 889.34375 785.816406 889.007812 782.292969 887.515625 C 778.910156 886.15625 776.269531 883.921875 772.339844 883.109375 C 769.820312 882.578125 766.773438 882.398438 763.570312 882.398438 C 756.960938 882.398438 749.65625 883.179688 744.78125 883.320312 C 722.839844 884.0625 703.542969 889.34375 683.019531 892.324219 C 674.65625 893.539062 666.765625 894.125 659.136719 894.125 C 624.632812 894.125 595.710938 882.128906 554.890625 862.050781 C 543.039062 856.222656 531.390625 851.480469 521.773438 843.628906 C 500.171875 826.019531 470.371094 803.257812 437.660156 800.617188 C 435.839844 800.46875 434.046875 800.394531 432.304688 800.394531 C 413.980469 800.394531 399.917969 808.066406 384.429688 808.066406 C 377.167969 808.066406 369.597656 806.378906 361.136719 801.429688 C 344.074219 791.472656 338.320312 773.046875 322.945312 761.734375 C 292.371094 739.132812 262.953125 733.910156 234.316406 733.910156 C 213.101562 733.910156 192.308594 736.777344 171.789062 737.546875 C 164.527344 737.839844 157.746094 738.1875 151.039062 738.1875 C 138.996094 738.1875 127.179688 737.054688 113.214844 732.394531 C 93.238281 725.6875 72.988281 717.226562 51.386719 714.238281 C 46.398438 713.570312 41.175781 713.292969 35.886719 713.292969 Z M 35.894531 713.308594 " fill-opacity="1" fill-rule="nonzero"/><path fill="#5f6454" d="M -262.777344 677.742188 C -264.128906 678.003906 -265.523438 678.328125 -266.972656 678.734375 C -268.050781 703.5625 -242.269531 700.25 -222.761719 703.796875 C -176.40625 712.101562 -140.230469 735.890625 -90.378906 739.042969 C -79.234375 739.746094 -69.917969 738.769531 -61.269531 737.105469 C -49.613281 734.855469 -39.171875 731.351562 -27.117188 729.035156 C -23.929688 728.417969 -20.628906 727.886719 -17.164062 727.480469 C 8.742188 724.488281 25.085938 742.371094 49.015625 748.105469 C 56.9375 750 64.265625 750.144531 70.363281 748.964844 C 88.8125 745.410156 96.082031 729.828125 74.90625 714.628906 C 68.179688 709.789062 60.492188 705.679688 52.71875 701.867188 C 47.175781 699.214844 42.421875 694.605469 36.828125 692.378906 C 31.761719 690.457031 23.152344 693.355469 24.488281 686.339844 C 26.496094 685.632812 28.371094 685.125 30.144531 684.785156 C 43.652344 682.183594 50.875 689.339844 64.175781 692.207031 C 85.605469 696.765625 107.484375 701.859375 130.757812 698.816406 C 131.457031 698.734375 132.175781 698.621094 132.910156 698.476562 C 140.367188 697.039062 149.421875 692.722656 151.429688 686.558594 C 152.015625 684.921875 152.496094 682.761719 151.640625 681.199219 C 150.898438 679.828125 149.5625 679.738281 148.117188 678.988281 C 144.199219 676.917969 142.632812 673.074219 138.191406 671.515625 C 135.386719 670.539062 131.523438 671.628906 128.433594 671.671875 C 126.707031 671.703125 125.125 671.65625 123.371094 672.003906 C 123.101562 672.054688 122.816406 672.125 122.53125 672.191406 C 120.648438 672.695312 119.066406 673.113281 117.4375 673.421875 C 115.953125 673.707031 114.429688 673.910156 112.605469 674.035156 C 106.042969 674.335938 97.238281 674.441406 96.441406 668.53125 C 109.15625 662.910156 110.140625 655.890625 95.773438 655.761719 C 93.945312 655.730469 92.25 655.902344 90.644531 656.210938 C 83.511719 657.585938 78.277344 661.746094 72.085938 663.847656 C 70.960938 664.230469 69.867188 664.523438 68.800781 664.726562 C 56.230469 667.148438 47.328125 658.019531 35.828125 656.421875 C 22.875 654.53125 6.597656 656.355469 -7.734375 659.121094 C -10.984375 659.753906 -14.132812 660.425781 -17.125 661.117188 C -37.558594 665.882812 -55.898438 673.945312 -76.886719 677.988281 C -85.796875 679.707031 -95.179688 680.707031 -105.402344 680.414062 C -118.988281 680.066406 -133.921875 685.222656 -147.316406 683.734375 C -163.535156 681.898438 -161.734375 675.484375 -171.050781 670.796875 C -181.058594 665.761719 -169.167969 663.742188 -186.375 664.296875 C -187.175781 664.328125 -188.011719 664.425781 -188.859375 664.589844 C -196.335938 666.03125 -205.351562 672.242188 -211.800781 674.785156 C -215.351562 676.195312 -218.589844 677.128906 -221.613281 677.710938 C -237.011719 680.683594 -246.839844 674.675781 -262.777344 677.742188 Z M -262.777344 677.742188 " fill-opacity="1" fill-rule="nonzero"/><path fill="#3d5d4b" d="M -114.316406 662.84375 C -114.5625 662.84375 -114.808594 662.851562 -115.050781 662.867188 C -130.5625 664.019531 -110.78125 670.179688 -106.109375 671.742188 C -96.410156 674.972656 -87.566406 676.28125 -78.902344 679.917969 C -77.9375 682.574219 -75.453125 682.796875 -69.878906 685.625 C -67.863281 686.667969 -66.160156 687.808594 -64.59375 688.957031 C -62.746094 690.554688 -61.027344 692.078125 -59.109375 693.347656 L -60.453125 692.085938 C -57 694.605469 -53.414062 696.574219 -47.347656 696.574219 C -46.53125 696.574219 -45.667969 696.535156 -44.753906 696.460938 C -43.265625 696.332031 -41.730469 696.273438 -40.167969 696.273438 C -16.25 696.273438 15.71875 710.832031 29.0625 724.433594 C 50.261719 746.109375 95.160156 772.65625 131.390625 776.589844 C 133.398438 776.804688 135.222656 776.902344 136.910156 776.902344 C 147.191406 776.902344 152.421875 773.3125 162.539062 771.914062 C 166.078125 771.421875 169.457031 771.179688 172.695312 771.179688 C 209.800781 771.179688 229.125 802.019531 264.992188 819.464844 C 293.226562 833.167969 317.886719 837.210938 341.132812 837.210938 C 374.625 837.210938 405.152344 828.816406 439.125 828.816406 C 449.398438 828.816406 459.992188 829.582031 471.070312 831.585938 C 481.179688 833.433594 496.796875 836.058594 509.277344 836.058594 C 528.480469 836.058594 540.285156 829.839844 513.320312 804.960938 C 500.292969 792.898438 487.363281 789.140625 474.617188 789.140625 C 453.449219 789.140625 432.777344 799.515625 413.007812 799.515625 C 411.320312 799.515625 409.628906 799.441406 407.949219 799.273438 C 366.808594 795.089844 331.539062 774.472656 289.886719 774.472656 C 288.417969 774.472656 286.933594 774.496094 285.449219 774.546875 C 283.609375 774.609375 281.789062 774.644531 279.964844 774.644531 C 261.671875 774.644531 244.277344 771.585938 227.277344 766.222656 C 209.667969 760.59375 194.90625 750.707031 177.707031 745.425781 C 172.289062 743.796875 164.496094 745.289062 159.351562 742.648438 C 156.238281 741.089844 156.710938 738.179688 153.394531 736.761719 C 152.25 736.28125 150.703125 736.199219 149.089844 736.199219 C 148.28125 736.199219 147.457031 736.222656 146.644531 736.222656 C 145.4375 736.222656 144.273438 736.175781 143.308594 735.949219 C 134.710938 734.050781 122.449219 732.5 118.660156 725.71875 C 113.515625 716.574219 115.140625 708.042969 103.089844 701.945312 C 102.816406 701.808594 102.546875 701.675781 102.339844 701.539062 C 92.820312 697.082031 82.992188 691.164062 73.09375 691.164062 C 69.890625 691.164062 66.679688 691.785156 63.460938 693.273438 C 56.230469 696.691406 48.878906 698.277344 40.953125 698.277344 C 36.789062 698.277344 32.460938 697.832031 27.90625 697 C 20.863281 695.640625 15.71875 691.375 8.40625 690.832031 C 7.601562 690.765625 6.816406 690.734375 6.042969 690.734375 C 1.429688 690.734375 -2.761719 691.785156 -7.136719 691.785156 C -9.230469 691.785156 -11.367188 691.546875 -13.609375 690.839844 C -18.753906 689.28125 -21.808594 684.605469 -26.886719 683.324219 C -27.792969 683.097656 -28.691406 683.007812 -29.578125 683.007812 C -32.863281 683.007812 -36.015625 684.230469 -39.277344 684.230469 C -40.433594 684.230469 -41.601562 684.082031 -42.792969 683.660156 C -44.691406 682.984375 -51.53125 677.226562 -52.546875 675.808594 C -54.578125 673.167969 -50.984375 667.683594 -53.085938 665.507812 C -54.527344 664.066406 -55.832031 663.496094 -57.039062 663.496094 C -60.984375 663.496094 -63.917969 669.542969 -67.441406 670.789062 C -68.792969 671.253906 -70.335938 671.425781 -71.964844 671.425781 C -75.8125 671.425781 -80.15625 670.449219 -83.628906 669.96875 C -85.332031 669.773438 -87.058594 669.746094 -88.78125 669.746094 C -89.425781 669.746094 -90.078125 669.746094 -90.726562 669.746094 C -93.09375 669.746094 -95.449219 669.699219 -97.714844 669.21875 C -103.109375 668.050781 -108.5 662.828125 -114.316406 662.828125 Z M -114.316406 662.84375 " fill-opacity="1" fill-rule="nonzero"/><path fill="#3d5d4b" d="M 1109.363281 -5.941406 C 1101.097656 -5.941406 1093.3125 -4.246094 1085.257812 -2.960938 C 1080.113281 -2.082031 1071.652344 -2.210938 1068.125 1.105469 C 1061.691406 7.203125 1069.070312 9.160156 1075.035156 11.128906 C 1076.660156 11.667969 1078.214844 12.207031 1079.300781 12.824219 C 1086.34375 16.648438 1088.648438 22.695312 1097.582031 22.695312 C 1098.617188 22.695312 1099.742188 22.613281 1100.980469 22.441406 C 1107.78125 21.464844 1110.535156 16.917969 1116.859375 16.917969 C 1118.019531 16.917969 1119.304688 17.070312 1120.75 17.429688 C 1130.90625 19.933594 1127.253906 28.605469 1134.5 33.144531 C 1143.847656 39.035156 1161.113281 40.730469 1172.289062 44.179688 C 1180.210938 46.621094 1194.230469 63.078125 1203.574219 67.953125 C 1220.167969 76.628906 1239.261719 82.382812 1258.089844 87.460938 C 1292.738281 96.851562 1324.78125 108.351562 1361.445312 108.351562 C 1365.773438 108.351562 1370.167969 108.195312 1374.644531 107.851562 C 1391.09375 106.628906 1406.867188 101.652344 1423.316406 101.652344 C 1424.136719 101.652344 1424.953125 101.660156 1425.777344 101.691406 C 1429.980469 101.757812 1435.328125 102.027344 1438.515625 104.46875 C 1442.578125 107.589844 1444.066406 113.949219 1441.761719 117.882812 C 1439.460938 121.8125 1436.28125 127.5 1444.539062 128.308594 C 1444.914062 128.339844 1445.296875 128.355469 1445.671875 128.355469 C 1449.105469 128.355469 1452.457031 127.144531 1455.910156 127.144531 C 1456.074219 127.144531 1456.230469 127.144531 1456.390625 127.152344 C 1459.300781 127.289062 1461.332031 128.917969 1464.175781 129.320312 C 1465.417969 129.457031 1482.835938 130.410156 1483.960938 130.410156 C 1484 130.410156 1484.023438 130.410156 1484.023438 130.410156 C 1483.339844 120.523438 1486.863281 113.882812 1474 110.085938 C 1457.140625 105.144531 1468.988281 101.007812 1473.125 91.1875 C 1475.171875 86.261719 1471.96875 85.015625 1467.476562 85.015625 C 1462.890625 85.015625 1456.964844 86.3125 1453.890625 86.3125 C 1446.308594 86.3125 1428.289062 81.367188 1438.109375 73.988281 C 1442.378906 70.796875 1447.792969 70.257812 1451.183594 65.785156 C 1455.855469 59.6875 1452.878906 59.898438 1444.003906 58.40625 C 1436.828125 57.292969 1428.199219 56.441406 1420.910156 56.441406 C 1420.640625 56.441406 1420.371094 56.441406 1420.101562 56.441406 C 1414.121094 56.5 1408.097656 58.480469 1402.058594 58.480469 C 1401.394531 58.480469 1400.71875 58.457031 1400.050781 58.40625 C 1394.230469 57.933594 1387.859375 53.460938 1382.378906 51.359375 C 1374.121094 48.246094 1367.75 43.371094 1358.339844 42.761719 C 1357.402344 42.703125 1356.46875 42.679688 1355.53125 42.679688 C 1347.746094 42.679688 1340.011719 44.496094 1332.332031 44.796875 C 1318.988281 45.203125 1308.496094 45.742188 1295.421875 48.789062 C 1292.257812 49.515625 1289.113281 49.84375 1285.992188 49.84375 C 1266.160156 49.84375 1247.703125 36.339844 1235.761719 24.8125 C 1227.636719 16.957031 1219.574219 10.25 1206.027344 9.101562 C 1189.773438 7.675781 1171.832031 9.035156 1156.523438 4.832031 C 1142.097656 0.902344 1125.035156 -5.941406 1109.386719 -5.941406 Z M 1109.363281 -5.941406 " fill-opacity="1" fill-rule="nonzero"/><path fill="#5f6454" d="M 1385.328125 0.0234375 C 1383.023438 0.0898438 1379.632812 0.0898438 1377.742188 0.160156 L 1376.867188 0.160156 C 1376.460938 0.160156 1376.054688 0.160156 1375.582031 0.226562 C 1374.726562 0.226562 1373.867188 0.257812 1373.011719 0.257812 C 1372.582031 0.257812 1372.148438 0.25 1371.71875 0.226562 C 1369.523438 0.226562 1367.332031 0.152344 1365.148438 0.152344 C 1362.742188 0.152344 1360.347656 0.25 1357.972656 0.632812 C 1353.507812 1.382812 1348.96875 3.203125 1344.90625 4.765625 C 1339.21875 7 1335.085938 9.710938 1331.15625 13.503906 C 1327.5625 16.957031 1319.980469 18.785156 1314.429688 19.257812 C 1312.785156 19.417969 1311.144531 19.476562 1309.5 19.476562 C 1302.59375 19.476562 1295.707031 18.382812 1288.785156 18.382812 C 1288.617188 18.382812 1288.453125 18.382812 1288.289062 18.382812 C 1278.742188 18.515625 1270.203125 21.425781 1262.214844 25.359375 C 1258.699219 27.054688 1255.238281 28.808594 1252.058594 30.773438 C 1250.835938 31.523438 1246.980469 33.414062 1247.050781 34.839844 C 1247.132812 36.199219 1249.277344 36.648438 1252.328125 36.648438 C 1258.21875 36.648438 1267.472656 34.96875 1271.683594 34.96875 C 1272.34375 34.96875 1272.882812 35.011719 1273.257812 35.109375 C 1277.796875 36.257812 1282.402344 40.527344 1277.390625 43.035156 C 1272.3125 45.539062 1266.625 47.023438 1261.683594 49.808594 C 1257.691406 52.042969 1253.351562 54.007812 1249.695312 56.582031 C 1241.429688 62.277344 1250.238281 64.984375 1256.808594 67.289062 C 1259.988281 68.441406 1262.972656 69.386719 1266.425781 69.929688 C 1267.976562 70.167969 1269.453125 70.273438 1270.878906 70.273438 C 1284.058594 70.273438 1292.285156 60.984375 1305.367188 59.085938 C 1307.695312 58.734375 1309.988281 58.601562 1312.269531 58.601562 C 1318.832031 58.601562 1325.261719 59.734375 1331.847656 60.234375 C 1334.6875 60.4375 1337.597656 60.640625 1340.308594 61.390625 C 1340.988281 61.59375 1341.664062 61.796875 1342.273438 62.066406 C 1347.082031 63.964844 1351.214844 65.382812 1356.292969 66.671875 C 1359.089844 67.355469 1364.097656 68.710938 1368.148438 68.710938 C 1371.757812 68.710938 1374.601562 67.632812 1374.441406 64.03125 C 1374.242188 58.140625 1368.75 50.484375 1364.421875 45.808594 C 1362.253906 43.371094 1360.695312 41.136719 1359.882812 38.695312 C 1359.074219 36.257812 1359.007812 33.617188 1359.679688 30.640625 C 1361.511719 24.878906 1365.300781 20.820312 1370.175781 17.765625 C 1373.085938 15.9375 1377.285156 13.429688 1381.011719 13.160156 C 1381.816406 13.085938 1382.648438 13.054688 1383.496094 13.054688 C 1387.253906 13.054688 1391.304688 13.671875 1394.898438 13.835938 C 1397.824219 13.941406 1400.769531 14.015625 1403.710938 14.015625 C 1410.230469 14.015625 1416.746094 13.625 1422.996094 12.273438 C 1427.0625 11.464844 1431.328125 9.433594 1427.0625 6.453125 C 1423.128906 3.746094 1416.761719 2.792969 1411.75 2.253906 C 1404.304688 1.433594 1397.125 1.503906 1389.675781 0.421875 C 1388.589844 0.285156 1387.507812 0.152344 1386.421875 0.0859375 C 1386.015625 0.015625 1385.679688 0.015625 1385.339844 0.015625 Z M 1385.328125 0.0234375 " fill-opacity="1" fill-rule="nonzero"/><path fill="#2a2d32" d="M 1301.394531 27.046875 C 1299.023438 27.046875 1297.125 27.863281 1295.863281 29.761719 C 1288.890625 40.121094 1319.15625 49.941406 1328.375 55.972656 C 1328.644531 56.175781 1328.914062 56.378906 1329.117188 56.515625 C 1341.867188 65.9375 1352.789062 74.96875 1367.609375 74.96875 C 1368.136719 74.96875 1368.675781 74.960938 1369.207031 74.9375 C 1374.488281 74.667969 1378.621094 71.683594 1382.8125 69.457031 C 1385.484375 68.007812 1388.246094 66.835938 1391.351562 66.835938 C 1392.03125 66.835938 1392.730469 66.890625 1393.441406 67.015625 C 1398.046875 67.761719 1400.824219 69.386719 1397.238281 72.839844 C 1394.53125 75.410156 1391.484375 77.648438 1389.039062 80.355469 C 1387.34375 82.320312 1385.445312 84.757812 1386.128906 87.199219 C 1387.140625 90.648438 1392.296875 93.085938 1395.949219 94.648438 C 1399.308594 96.058594 1403.5 97.429688 1407.507812 97.429688 C 1408.496094 97.429688 1409.480469 97.347656 1410.4375 97.160156 C 1412.675781 96.753906 1414.300781 95.464844 1416.539062 94.992188 C 1418.367188 94.585938 1420.332031 94.65625 1422.089844 94.046875 C 1423.511719 93.574219 1424.527344 92.824219 1426.152344 92.765625 C 1427.457031 92.667969 1428.816406 92.597656 1430.171875 92.597656 C 1431.695312 92.597656 1433.21875 92.683594 1434.6875 92.890625 C 1435.703125 93.027344 1442.003906 94.453125 1442.003906 95.398438 L 1442.003906 57.265625 C 1435.453125 55.164062 1428.929688 54.398438 1422.410156 54.398438 C 1405.308594 54.398438 1388.257812 59.636719 1371.089844 59.636719 C 1368.457031 59.636719 1365.816406 59.515625 1363.175781 59.230469 C 1361.820312 59.09375 1360.46875 58.894531 1359.042969 58.691406 C 1357.957031 58.488281 1356.742188 58.082031 1355.316406 57.46875 C 1341.460938 51.457031 1314.355469 27.054688 1301.386719 27.054688 Z M 1301.394531 27.046875 " fill-opacity="1" fill-rule="nonzero"/><path fill="#2a2d32" d="M 73.152344 726.625 C 69.925781 726.625 66.160156 728.011719 63.429688 728.386719 C 60.25 728.859375 58.691406 729.671875 55.847656 730.894531 C 53.410156 731.980469 50.019531 732.050781 47.378906 732.792969 C 42.910156 734.015625 38.507812 735.230469 34.035156 736.589844 C 24.351562 739.5 14.804688 743.226562 4.582031 744.914062 C 0.246094 745.589844 -4.226562 746.339844 -8.628906 747.082031 C -9.234375 747.21875 -8.628906 759.003906 -8.628906 760.363281 C -8.351562 760.054688 -7.511719 759.972656 -6.484375 759.972656 C -5.109375 759.972656 -3.402344 760.121094 -2.269531 760.121094 C -1.976562 760.121094 -1.71875 760.113281 -1.519531 760.085938 C 1.390625 759.746094 4.175781 758.996094 7.019531 758.523438 C 8.914062 758.117188 10.804688 757.4375 12.703125 757.039062 C 12.90625 757.039062 13.109375 756.972656 13.320312 756.972656 C 13.785156 756.886719 14.21875 756.851562 14.640625 756.851562 C 15.914062 756.851562 17.023438 757.171875 18.398438 757.375 C 20.308594 757.617188 22.515625 757.832031 24.726562 757.832031 C 27.449219 757.832031 30.179688 757.503906 32.347656 756.492188 C 33.910156 755.816406 34.652344 755.074219 36.617188 754.726562 C 39.054688 754.253906 41.695312 754.1875 44.132812 753.851562 C 52.660156 752.835938 58.824219 749.648438 66.070312 746.46875 C 71.21875 744.300781 79.6875 741.1875 80.023438 735.972656 C 80.160156 733.667969 79.214844 729.265625 76.976562 727.644531 C 75.898438 726.894531 74.578125 726.625 73.152344 726.625 Z M 73.152344 726.625 " fill-opacity="1" fill-rule="nonzero"/><path fill="#2a2d32" d="M 1020.539062 20.707031 C 1022.84375 20.640625 1026.234375 20.640625 1028.125 20.570312 L 1029 20.570312 C 1029.40625 20.570312 1029.8125 20.570312 1030.285156 20.503906 C 1031.140625 20.503906 1032 20.476562 1032.855469 20.476562 C 1033.285156 20.476562 1033.71875 20.480469 1034.148438 20.503906 C 1036.34375 20.503906 1038.535156 20.578125 1040.71875 20.578125 C 1043.125 20.578125 1045.519531 20.480469 1047.894531 20.101562 C 1052.359375 19.347656 1056.898438 17.527344 1060.960938 15.964844 C 1066.648438 13.730469 1070.78125 11.023438 1074.710938 7.226562 C 1078.304688 3.773438 1085.886719 1.945312 1091.4375 1.472656 C 1093.082031 1.316406 1094.722656 1.253906 1096.367188 1.253906 C 1103.273438 1.253906 1110.160156 2.351562 1117.082031 2.351562 C 1117.25 2.351562 1117.414062 2.351562 1117.578125 2.351562 C 1127.125 2.214844 1135.664062 -0.695312 1143.652344 -4.628906 C 1147.167969 -6.324219 1150.625 -8.078125 1153.808594 -10.042969 C 1155.03125 -10.792969 1158.886719 -12.683594 1158.816406 -14.109375 C 1158.734375 -15.46875 1156.589844 -15.917969 1153.539062 -15.917969 C 1147.648438 -15.917969 1138.394531 -14.238281 1134.183594 -14.238281 C 1133.523438 -14.238281 1132.984375 -14.28125 1132.609375 -14.378906 C 1128.070312 -15.527344 1123.464844 -19.796875 1128.476562 -22.300781 C 1133.554688 -24.808594 1139.242188 -26.292969 1144.183594 -29.074219 C 1148.175781 -31.3125 1152.515625 -33.277344 1156.167969 -35.851562 C 1164.4375 -41.542969 1155.628906 -44.253906 1149.058594 -46.554688 C 1145.878906 -47.710938 1142.894531 -48.65625 1139.441406 -49.195312 C 1137.890625 -49.4375 1136.414062 -49.542969 1134.988281 -49.542969 C 1121.808594 -49.542969 1113.582031 -40.253906 1100.5 -38.355469 C 1098.175781 -38.003906 1095.878906 -37.867188 1093.597656 -37.867188 C 1087.035156 -37.867188 1080.605469 -39 1074.019531 -39.503906 C 1071.179688 -39.707031 1068.269531 -39.910156 1065.558594 -40.660156 C 1064.878906 -40.863281 1064.203125 -41.0625 1063.59375 -41.335938 C 1058.789062 -43.234375 1054.652344 -44.648438 1049.578125 -45.941406 C 1046.777344 -46.625 1041.769531 -47.980469 1037.71875 -47.980469 C 1034.109375 -47.980469 1031.265625 -46.902344 1031.425781 -43.300781 C 1031.625 -37.410156 1037.117188 -29.75 1041.445312 -25.078125 C 1043.613281 -22.640625 1045.171875 -20.402344 1045.984375 -17.964844 C 1046.792969 -15.527344 1046.859375 -12.886719 1046.1875 -9.910156 C 1044.355469 -4.148438 1040.566406 -0.0898438 1035.691406 2.964844 C 1032.78125 4.796875 1028.582031 7.300781 1024.855469 7.570312 C 1024.050781 7.644531 1023.21875 7.675781 1022.371094 7.675781 C 1018.613281 7.675781 1014.5625 7.0625 1010.96875 6.894531 C 1008.042969 6.792969 1005.097656 6.714844 1002.15625 6.714844 C 995.636719 6.714844 989.121094 7.105469 982.871094 8.457031 C 978.804688 9.265625 974.539062 11.300781 978.804688 14.277344 C 982.738281 16.984375 989.105469 17.9375 994.117188 18.480469 C 1001.5625 19.296875 1008.742188 19.230469 1016.191406 20.308594 C 1017.277344 20.445312 1018.359375 20.578125 1019.445312 20.648438 C 1019.851562 20.714844 1020.1875 20.714844 1020.527344 20.714844 Z M 1020.539062 20.707031 " fill-opacity="1" fill-rule="nonzero"/><path fill="#5f6454" d="M 488.742188 852.210938 C 491.042969 852.140625 494.433594 852.140625 496.324219 852.074219 L 497.203125 852.074219 C 497.609375 852.074219 498.011719 852.074219 498.484375 852.007812 C 499.339844 852.007812 500.203125 851.976562 501.058594 851.976562 C 501.484375 851.976562 501.921875 851.984375 502.347656 852.007812 C 504.546875 852.007812 506.734375 852.082031 508.917969 852.082031 C 511.328125 852.082031 513.71875 851.984375 516.097656 851.601562 C 520.558594 850.851562 525.097656 849.027344 529.164062 847.46875 C 534.847656 845.230469 538.980469 842.523438 542.914062 838.726562 C 546.503906 835.277344 554.089844 833.445312 559.640625 832.972656 C 561.28125 832.816406 562.925781 832.757812 564.566406 832.757812 C 571.476562 832.757812 578.359375 833.851562 585.285156 833.851562 C 585.449219 833.851562 585.613281 833.851562 585.78125 833.851562 C 595.328125 833.714844 603.863281 830.804688 611.851562 826.875 C 615.371094 825.179688 618.828125 823.425781 622.007812 821.457031 C 623.230469 820.707031 627.085938 818.816406 627.019531 817.390625 C 626.9375 816.035156 624.792969 815.585938 621.738281 815.585938 C 615.851562 815.585938 606.59375 817.265625 602.386719 817.265625 C 601.726562 817.265625 601.1875 817.21875 600.8125 817.121094 C 596.273438 815.972656 591.667969 811.707031 596.679688 809.199219 C 601.757812 806.695312 607.441406 805.207031 612.386719 802.425781 C 616.375 800.191406 620.71875 798.222656 624.371094 795.652344 C 632.636719 789.957031 623.832031 787.25 617.261719 784.945312 C 614.078125 783.789062 611.09375 782.84375 607.644531 782.304688 C 606.089844 782.066406 604.613281 781.960938 603.1875 781.960938 C 590.011719 781.960938 581.78125 791.246094 568.699219 793.144531 C 566.375 793.5 564.078125 793.632812 561.800781 793.632812 C 555.238281 793.632812 548.808594 792.5 542.222656 791.996094 C 539.378906 791.796875 536.46875 791.59375 533.761719 790.84375 C 533.078125 790.640625 532.402344 790.4375 531.796875 790.167969 C 526.988281 788.269531 522.855469 786.851562 517.777344 785.5625 C 514.980469 784.878906 509.96875 783.519531 505.917969 783.519531 C 502.3125 783.519531 499.46875 784.601562 499.625 788.203125 C 499.828125 794.089844 505.320312 801.75 509.648438 806.425781 C 511.8125 808.863281 513.375 811.097656 514.183594 813.535156 C 514.996094 815.972656 515.0625 818.613281 514.386719 821.59375 C 512.558594 827.355469 508.769531 831.414062 503.894531 834.464844 C 500.984375 836.296875 496.78125 838.804688 493.054688 839.074219 C 492.253906 839.148438 491.417969 839.179688 490.570312 839.179688 C 486.8125 839.179688 482.765625 838.5625 479.171875 838.398438 C 476.246094 838.292969 473.296875 838.21875 470.359375 838.21875 C 463.839844 838.21875 457.320312 838.609375 451.074219 839.957031 C 447.007812 840.769531 442.738281 842.800781 447.007812 845.78125 C 450.9375 848.488281 457.304688 849.441406 462.316406 849.980469 C 469.765625 850.796875 476.941406 850.730469 484.390625 851.8125 C 485.480469 851.945312 486.558594 852.082031 487.648438 852.148438 C 488.050781 852.214844 488.390625 852.214844 488.726562 852.214844 Z M 488.742188 852.210938 " fill-opacity="1" fill-rule="nonzero"/></svg>