<svg xmlns="http://www.w3.org/2000/svg" xmlns:xlink="http://www.w3.org/1999/xlink" width="1920" zoomAndPan="magnify" viewBox="0 0 1440 809.999993" height="1080" preserveAspectRatio="xMidYMid meet" version="1.0"><defs><linearGradient x1="960" gradientTransform="matrix(0.75, 0, 0, 0.75, 0.00000622222, 0.00002)" y1="0" x2="960" gradientUnits="userSpaceOnUse" y2="1079.999955" id="2170a86de7"><stop stop-opacity="1" stop-color="rgb(49.398804%, 66.699219%, 56.898499%)" offset="0"/><stop stop-opacity="1" stop-color="rgb(49.539185%, 66.75415%, 56.97937%)" offset="0.0078125"/><stop stop-opacity="1" stop-color="rgb(49.821472%, 66.867065%, 57.141113%)" offset="0.015625"/><stop stop-opacity="1" stop-color="rgb(50.10376%, 66.978455%, 57.302856%)" offset="0.0234375"/><stop stop-opacity="1" stop-color="rgb(50.384521%, 67.089844%, 57.4646%)" offset="0.03125"/><stop stop-opacity="1" stop-color="rgb(50.666809%, 67.202759%, 57.626343%)" offset="0.0390625"/><stop stop-opacity="1" stop-color="rgb(50.949097%, 67.314148%, 57.788086%)" offset="0.046875"/><stop stop-opacity="1" stop-color="rgb(51.231384%, 67.425537%, 57.949829%)" offset="0.0546875"/><stop stop-opacity="1" stop-color="rgb(51.512146%, 67.538452%, 58.110046%)" offset="0.0625"/><stop stop-opacity="1" stop-color="rgb(51.794434%, 67.649841%, 58.27179%)" offset="0.0703125"/><stop stop-opacity="1" stop-color="rgb(52.076721%, 67.76123%, 58.433533%)" offset="0.078125"/><stop stop-opacity="1" stop-color="rgb(52.359009%, 67.874146%, 58.595276%)" offset="0.0859375"/><stop stop-opacity="1" stop-color="rgb(52.639771%, 67.985535%, 58.757019%)" offset="0.09375"/><stop stop-opacity="1" stop-color="rgb(52.922058%, 68.096924%, 58.918762%)" offset="0.101562"/><stop stop-opacity="1" stop-color="rgb(53.204346%, 68.209839%, 59.080505%)" offset="0.109375"/><stop stop-opacity="1" stop-color="rgb(53.486633%, 68.321228%, 59.240723%)" offset="0.117188"/><stop stop-opacity="1" stop-color="rgb(53.767395%, 68.432617%, 59.402466%)" offset="0.125"/><stop stop-opacity="1" stop-color="rgb(54.049683%, 68.545532%, 59.564209%)" offset="0.132812"/><stop stop-opacity="1" stop-color="rgb(54.33197%, 68.656921%, 59.725952%)" offset="0.140625"/><stop stop-opacity="1" stop-color="rgb(54.614258%, 68.768311%, 59.887695%)" offset="0.148437"/><stop stop-opacity="1" stop-color="rgb(54.89502%, 68.881226%, 60.049438%)" offset="0.15625"/><stop stop-opacity="1" stop-color="rgb(55.177307%, 68.992615%, 60.211182%)" offset="0.164062"/><stop stop-opacity="1" stop-color="rgb(55.459595%, 69.10553%, 60.371399%)" offset="0.171875"/><stop stop-opacity="1" stop-color="rgb(55.740356%, 69.216919%, 60.533142%)" offset="0.179687"/><stop stop-opacity="1" stop-color="rgb(56.022644%, 69.328308%, 60.694885%)" offset="0.1875"/><stop stop-opacity="1" stop-color="rgb(56.304932%, 69.441223%, 60.856628%)" offset="0.195312"/><stop stop-opacity="1" stop-color="rgb(56.587219%, 69.552612%, 61.018372%)" offset="0.203125"/><stop stop-opacity="1" stop-color="rgb(56.867981%, 69.664001%, 61.180115%)" offset="0.210938"/><stop stop-opacity="1" stop-color="rgb(57.150269%, 69.776917%, 61.341858%)" offset="0.21875"/><stop stop-opacity="1" stop-color="rgb(57.432556%, 69.888306%, 61.502075%)" offset="0.226562"/><stop stop-opacity="1" stop-color="rgb(57.714844%, 69.999695%, 61.663818%)" offset="0.234375"/><stop stop-opacity="1" stop-color="rgb(57.995605%, 70.11261%, 61.825562%)" offset="0.242188"/><stop stop-opacity="1" stop-color="rgb(58.277893%, 70.223999%, 61.987305%)" offset="0.25"/><stop stop-opacity="1" stop-color="rgb(58.560181%, 70.335388%, 62.149048%)" offset="0.257812"/><stop stop-opacity="1" stop-color="rgb(58.842468%, 70.448303%, 62.310791%)" offset="0.265625"/><stop stop-opacity="1" stop-color="rgb(59.12323%, 70.559692%, 62.472534%)" offset="0.273437"/><stop stop-opacity="1" stop-color="rgb(59.405518%, 70.671082%, 62.632751%)" offset="0.28125"/><stop stop-opacity="1" stop-color="rgb(59.687805%, 70.783997%, 62.794495%)" offset="0.289062"/><stop stop-opacity="1" stop-color="rgb(59.968567%, 70.895386%, 62.956238%)" offset="0.296875"/><stop stop-opacity="1" stop-color="rgb(60.250854%, 71.006775%, 63.117981%)" offset="0.304687"/><stop stop-opacity="1" stop-color="rgb(60.533142%, 71.11969%, 63.279724%)" offset="0.3125"/><stop stop-opacity="1" stop-color="rgb(60.81543%, 71.231079%, 63.441467%)" offset="0.320312"/><stop stop-opacity="1" stop-color="rgb(61.096191%, 71.342468%, 63.60321%)" offset="0.328125"/><stop stop-opacity="1" stop-color="rgb(61.378479%, 71.455383%, 63.763428%)" offset="0.335937"/><stop stop-opacity="1" stop-color="rgb(61.660767%, 71.566772%, 63.925171%)" offset="0.34375"/><stop stop-opacity="1" stop-color="rgb(61.943054%, 71.678162%, 64.086914%)" offset="0.351562"/><stop stop-opacity="1" stop-color="rgb(62.223816%, 71.791077%, 64.248657%)" offset="0.359375"/><stop stop-opacity="1" stop-color="rgb(62.506104%, 71.902466%, 64.4104%)" offset="0.367187"/><stop stop-opacity="1" stop-color="rgb(62.788391%, 72.013855%, 64.572144%)" offset="0.375"/><stop stop-opacity="1" stop-color="rgb(63.070679%, 72.12677%, 64.733887%)" offset="0.382812"/><stop stop-opacity="1" stop-color="rgb(63.35144%, 72.238159%, 64.894104%)" offset="0.390625"/><stop stop-opacity="1" stop-color="rgb(63.633728%, 72.349548%, 65.055847%)" offset="0.398438"/><stop stop-opacity="1" stop-color="rgb(63.916016%, 72.462463%, 65.21759%)" offset="0.40625"/><stop stop-opacity="1" stop-color="rgb(64.198303%, 72.573853%, 65.379333%)" offset="0.414062"/><stop stop-opacity="1" stop-color="rgb(64.479065%, 72.685242%, 65.541077%)" offset="0.421875"/><stop stop-opacity="1" stop-color="rgb(64.761353%, 72.798157%, 65.70282%)" offset="0.429688"/><stop stop-opacity="1" stop-color="rgb(65.04364%, 72.909546%, 65.864563%)" offset="0.4375"/><stop stop-opacity="1" stop-color="rgb(65.324402%, 73.020935%, 66.02478%)" offset="0.445312"/><stop stop-opacity="1" stop-color="rgb(65.606689%, 73.13385%, 66.186523%)" offset="0.453125"/><stop stop-opacity="1" stop-color="rgb(65.888977%, 73.245239%, 66.348267%)" offset="0.460938"/><stop stop-opacity="1" stop-color="rgb(66.171265%, 73.356628%, 66.51001%)" offset="0.46875"/><stop stop-opacity="1" stop-color="rgb(66.452026%, 73.469543%, 66.671753%)" offset="0.476562"/><stop stop-opacity="1" stop-color="rgb(66.734314%, 73.580933%, 66.833496%)" offset="0.484375"/><stop stop-opacity="1" stop-color="rgb(67.016602%, 73.692322%, 66.995239%)" offset="0.492188"/><stop stop-opacity="1" stop-color="rgb(67.298889%, 73.805237%, 67.155457%)" offset="0.5"/><stop stop-opacity="1" stop-color="rgb(67.579651%, 73.916626%, 67.3172%)" offset="0.507812"/><stop stop-opacity="1" stop-color="rgb(67.861938%, 74.028015%, 67.478943%)" offset="0.515625"/><stop stop-opacity="1" stop-color="rgb(68.144226%, 74.14093%, 67.640686%)" offset="0.523437"/><stop stop-opacity="1" stop-color="rgb(68.426514%, 74.252319%, 67.802429%)" offset="0.53125"/><stop stop-opacity="1" stop-color="rgb(68.707275%, 74.365234%, 67.964172%)" offset="0.539062"/><stop stop-opacity="1" stop-color="rgb(68.989563%, 74.476624%, 68.125916%)" offset="0.546875"/><stop stop-opacity="1" stop-color="rgb(69.271851%, 74.588013%, 68.287659%)" offset="0.554687"/><stop stop-opacity="1" stop-color="rgb(69.552612%, 74.700928%, 68.447876%)" offset="0.5625"/><stop stop-opacity="1" stop-color="rgb(69.8349%, 74.812317%, 68.609619%)" offset="0.570312"/><stop stop-opacity="1" stop-color="rgb(70.117188%, 74.923706%, 68.771362%)" offset="0.578125"/><stop stop-opacity="1" stop-color="rgb(70.399475%, 75.036621%, 68.933105%)" offset="0.585937"/><stop stop-opacity="1" stop-color="rgb(70.680237%, 75.14801%, 69.094849%)" offset="0.59375"/><stop stop-opacity="1" stop-color="rgb(70.962524%, 75.259399%, 69.256592%)" offset="0.601562"/><stop stop-opacity="1" stop-color="rgb(71.244812%, 75.372314%, 69.418335%)" offset="0.609375"/><stop stop-opacity="1" stop-color="rgb(71.5271%, 75.483704%, 69.578552%)" offset="0.617187"/><stop stop-opacity="1" stop-color="rgb(71.807861%, 75.595093%, 69.740295%)" offset="0.625"/><stop stop-opacity="1" stop-color="rgb(72.090149%, 75.708008%, 69.902039%)" offset="0.632812"/><stop stop-opacity="1" stop-color="rgb(72.372437%, 75.819397%, 70.063782%)" offset="0.640625"/><stop stop-opacity="1" stop-color="rgb(72.654724%, 75.930786%, 70.225525%)" offset="0.648437"/><stop stop-opacity="1" stop-color="rgb(72.935486%, 76.043701%, 70.387268%)" offset="0.65625"/><stop stop-opacity="1" stop-color="rgb(73.217773%, 76.15509%, 70.549011%)" offset="0.664062"/><stop stop-opacity="1" stop-color="rgb(73.500061%, 76.266479%, 70.709229%)" offset="0.671875"/><stop stop-opacity="1" stop-color="rgb(73.782349%, 76.379395%, 70.870972%)" offset="0.679687"/><stop stop-opacity="1" stop-color="rgb(74.06311%, 76.490784%, 71.032715%)" offset="0.6875"/><stop stop-opacity="1" stop-color="rgb(74.345398%, 76.602173%, 71.194458%)" offset="0.695312"/><stop stop-opacity="1" stop-color="rgb(74.627686%, 76.715088%, 71.356201%)" offset="0.703125"/><stop stop-opacity="1" stop-color="rgb(74.908447%, 76.826477%, 71.517944%)" offset="0.710937"/><stop stop-opacity="1" stop-color="rgb(75.190735%, 76.937866%, 71.679688%)" offset="0.71875"/><stop stop-opacity="1" stop-color="rgb(75.473022%, 77.050781%, 71.839905%)" offset="0.726562"/><stop stop-opacity="1" stop-color="rgb(75.75531%, 77.16217%, 72.001648%)" offset="0.734375"/><stop stop-opacity="1" stop-color="rgb(75.996399%, 77.258301%, 72.140503%)" offset="0.75"/><stop stop-opacity="1" stop-color="rgb(76.098633%, 77.2995%, 72.198486%)" offset="0.8125"/><stop stop-opacity="1" stop-color="rgb(76.098633%, 77.2995%, 72.198486%)" offset="0.828125"/><stop stop-opacity="1" stop-color="rgb(76.234436%, 77.427673%, 72.363281%)" offset="0.835938"/><stop stop-opacity="1" stop-color="rgb(76.550293%, 77.726746%, 72.743225%)" offset="0.839844"/><stop stop-opacity="1" stop-color="rgb(76.730347%, 77.897644%, 72.9599%)" offset="0.84375"/><stop stop-opacity="1" stop-color="rgb(76.908875%, 78.067017%, 73.175049%)" offset="0.847656"/><stop stop-opacity="1" stop-color="rgb(77.088928%, 78.237915%, 73.391724%)" offset="0.851562"/><stop stop-opacity="1" stop-color="rgb(77.267456%, 78.407288%, 73.606873%)" offset="0.855469"/><stop stop-opacity="1" stop-color="rgb(77.44751%, 78.578186%, 73.823547%)" offset="0.859375"/><stop stop-opacity="1" stop-color="rgb(77.626038%, 78.747559%, 74.038696%)" offset="0.863281"/><stop stop-opacity="1" stop-color="rgb(77.806091%, 78.918457%, 74.255371%)" offset="0.867188"/><stop stop-opacity="1" stop-color="rgb(77.984619%, 79.08783%, 74.47052%)" offset="0.871094"/><stop stop-opacity="1" stop-color="rgb(78.164673%, 79.258728%, 74.687195%)" offset="0.875"/><stop stop-opacity="1" stop-color="rgb(78.343201%, 79.428101%, 74.902344%)" offset="0.878906"/><stop stop-opacity="1" stop-color="rgb(78.521729%, 79.597473%, 75.119019%)" offset="0.882812"/><stop stop-opacity="1" stop-color="rgb(78.700256%, 79.766846%, 75.334167%)" offset="0.886719"/><stop stop-opacity="1" stop-color="rgb(78.88031%, 79.937744%, 75.550842%)" offset="0.890625"/><stop stop-opacity="1" stop-color="rgb(79.058838%, 80.107117%, 75.765991%)" offset="0.894531"/><stop stop-opacity="1" stop-color="rgb(79.238892%, 80.278015%, 75.982666%)" offset="0.898438"/><stop stop-opacity="1" stop-color="rgb(79.417419%, 80.447388%, 76.199341%)" offset="0.902344"/><stop stop-opacity="1" stop-color="rgb(79.597473%, 80.618286%, 76.416016%)" offset="0.90625"/><stop stop-opacity="1" stop-color="rgb(79.776001%, 80.787659%, 76.631165%)" offset="0.910156"/><stop stop-opacity="1" stop-color="rgb(79.956055%, 80.958557%, 76.847839%)" offset="0.914062"/><stop stop-opacity="1" stop-color="rgb(80.134583%, 81.12793%, 77.062988%)" offset="0.917969"/><stop stop-opacity="1" stop-color="rgb(80.314636%, 81.298828%, 77.279663%)" offset="0.921875"/><stop stop-opacity="1" stop-color="rgb(80.493164%, 81.468201%, 77.494812%)" offset="0.925781"/><stop stop-opacity="1" stop-color="rgb(80.673218%, 81.639099%, 77.711487%)" offset="0.929688"/><stop stop-opacity="1" stop-color="rgb(80.851746%, 81.808472%, 77.926636%)" offset="0.933594"/><stop stop-opacity="1" stop-color="rgb(81.031799%, 81.97937%, 78.143311%)" offset="0.9375"/><stop stop-opacity="1" stop-color="rgb(81.210327%, 82.148743%, 78.358459%)" offset="0.941406"/><stop stop-opacity="1" stop-color="rgb(81.390381%, 82.318115%, 78.575134%)" offset="0.945312"/><stop stop-opacity="1" stop-color="rgb(81.568909%, 82.487488%, 78.790283%)" offset="0.949219"/><stop stop-opacity="1" stop-color="rgb(81.748962%, 82.658386%, 79.006958%)" offset="0.953125"/><stop stop-opacity="1" stop-color="rgb(81.92749%, 82.827759%, 79.222107%)" offset="0.957031"/><stop stop-opacity="1" stop-color="rgb(82.107544%, 82.998657%, 79.438782%)" offset="0.960938"/><stop stop-opacity="1" stop-color="rgb(82.286072%, 83.16803%, 79.653931%)" offset="0.964844"/><stop stop-opacity="1" stop-color="rgb(82.466125%, 83.338928%, 79.870605%)" offset="0.96875"/><stop stop-opacity="1" stop-color="rgb(82.644653%, 83.508301%, 80.08728%)" offset="0.972656"/><stop stop-opacity="1" stop-color="rgb(82.823181%, 83.679199%, 80.303955%)" offset="0.976562"/><stop stop-opacity="1" stop-color="rgb(83.001709%, 83.848572%, 80.519104%)" offset="0.980469"/><stop stop-opacity="1" stop-color="rgb(83.181763%, 84.01947%, 80.735779%)" offset="0.984375"/><stop stop-opacity="1" stop-color="rgb(83.360291%, 84.188843%, 80.950928%)" offset="0.988281"/><stop stop-opacity="1" stop-color="rgb(83.540344%, 84.359741%, 81.167603%)" offset="0.992188"/><stop stop-opacity="1" stop-color="rgb(83.718872%, 84.529114%, 81.382751%)" offset="0.996094"/><stop stop-opacity="1" stop-color="rgb(83.898926%, 84.698486%, 81.599426%)" offset="1"/></linearGradient></defs><rect x="-144" width="1728" fill="#ffffff" y="-80.999999" height="971.999992" fill-opacity="1"/><rect x="-144" fill="url(#2170a86de7)" width="1728" y="-80.999999" height="971.999992"/><path fill="#3d5d4b" d="M 1204.023438 749.640625 C 1201.992188 749.640625 1199.871094 749.761719 1197.640625 749.996094 C 1176.3125 752.230469 1166.96875 767.132812 1148.898438 773.027344 C 1146.128906 773.929688 1143.324219 774.28125 1140.46875 774.28125 C 1131.214844 774.28125 1121.417969 770.515625 1110.710938 768.960938 C 1107.042969 768.4375 1103.632812 768.191406 1100.453125 768.191406 C 1070.445312 768.191406 1060.734375 790.128906 1046.660156 806.425781 C 1038.011719 816.472656 1027.476562 819.25 1015.3125 819.25 C 1000.980469 819.25 984.402344 815.390625 966.019531 815.023438 C 965.757812 815.023438 965.496094 815.015625 965.21875 815.015625 C 944.503906 815.015625 898.925781 827.800781 914.492188 851.941406 C 925.921875 869.78125 966.542969 874.328125 986.402344 874.328125 C 988.179688 874.328125 989.800781 874.292969 991.210938 874.226562 C 1024.917969 872.507812 1049.785156 859.234375 1084.964844 859.234375 C 1085.820312 859.234375 1086.683594 859.242188 1087.554688 859.257812 C 1098.703125 859.503906 1110.664062 860.824219 1121.882812 860.824219 C 1129.332031 860.824219 1136.457031 860.238281 1142.800781 858.378906 C 1166.902344 851.332031 1173 830.734375 1182.816406 813.742188 C 1188.351562 804.175781 1194.90625 800.265625 1201.59375 800.265625 C 1210.539062 800.265625 1219.742188 807.257812 1227.097656 817.066406 C 1237.1875 830.480469 1243.550781 838.066406 1263.386719 842.945312 C 1281.671875 847.414062 1305.097656 855.40625 1323.921875 856.351562 C 1324.910156 856.40625 1325.878906 856.433594 1326.847656 856.433594 C 1351.707031 856.433594 1369.441406 839.207031 1385.738281 826.617188 C 1399.582031 815.894531 1412.78125 813.066406 1427.71875 813.066406 C 1435.429688 813.066406 1443.601562 813.816406 1452.5625 814.625 C 1454.257812 814.777344 1455.878906 814.84375 1457.429688 814.84375 C 1483.324219 814.84375 1490.734375 795.074219 1513.089844 788.816406 C 1521.347656 786.511719 1538.683594 790.167969 1542.203125 782.785156 C 1549.785156 766.929688 1497.378906 758.261719 1485.53125 757.65625 C 1484.8125 757.625 1484.113281 757.609375 1483.429688 757.609375 C 1462.695312 757.609375 1456.195312 772.257812 1437.363281 772.257812 C 1433.847656 772.257812 1429.894531 771.746094 1425.339844 770.53125 C 1408.136719 765.878906 1383.136719 758.894531 1364.125 758.894531 C 1357.398438 758.894531 1351.421875 759.769531 1346.800781 761.925781 C 1327.507812 770.921875 1315.214844 799.71875 1292.066406 799.71875 C 1281.910156 799.71875 1269.671875 794.171875 1253.839844 778.996094 C 1237.050781 762.878906 1225.929688 749.648438 1204.03125 749.648438 Z M 1204.023438 749.640625 " fill-opacity="1" fill-rule="nonzero"/><path fill="#5f6454" d="M 1060.472656 817.636719 C 1059.183594 818.125 1057.863281 818.679688 1056.507812 819.316406 C 1059.617188 843.980469 1084.472656 836.371094 1104.296875 836.589844 C 1151.386719 836.980469 1191.042969 854.339844 1240.703125 849.058594 C 1251.808594 847.882812 1260.832031 845.34375 1269.066406 842.246094 C 1280.179688 838.066406 1289.875 832.859375 1301.371094 828.539062 C 1304.410156 827.398438 1307.574219 826.308594 1310.917969 825.335938 C 1335.949219 818.019531 1355.066406 832.90625 1379.617188 834.53125 C 1387.75 835.074219 1394.992188 833.976562 1400.804688 831.785156 C 1418.398438 825.167969 1422.933594 808.585938 1399.515625 797.160156 C 1392.066406 793.519531 1383.804688 790.765625 1375.5 788.3125 C 1369.59375 786.625 1364.132812 782.886719 1358.238281 781.636719 C 1352.929688 780.59375 1344.925781 784.898438 1345.0625 777.757812 C 1346.929688 776.722656 1348.691406 775.902344 1350.378906 775.273438 C 1363.253906 770.433594 1371.578125 776.277344 1385.167969 776.863281 C 1407.058594 777.75 1429.480469 779.09375 1451.902344 772.175781 C 1452.578125 771.972656 1453.269531 771.738281 1453.964844 771.476562 C 1461.066406 768.804688 1469.265625 763.019531 1470.21875 756.605469 C 1470.515625 754.894531 1470.621094 752.6875 1469.519531 751.292969 C 1468.550781 750.0625 1467.226562 750.195312 1465.671875 749.703125 C 1461.464844 748.3125 1459.277344 744.792969 1454.632812 744.007812 C 1451.703125 743.519531 1448.078125 745.238281 1445.042969 745.808594 C 1443.347656 746.128906 1441.78125 746.355469 1440.109375 746.976562 C 1439.84375 747.074219 1439.582031 747.1875 1439.3125 747.308594 C 1437.542969 748.125 1436.050781 748.800781 1434.5 749.378906 C 1433.082031 749.910156 1431.617188 750.371094 1429.839844 750.796875 C 1423.421875 752.191406 1414.761719 753.785156 1412.984375 748.089844 C 1424.5625 740.40625 1424.359375 733.316406 1410.179688 735.609375 C 1408.371094 735.886719 1406.730469 736.347656 1405.199219 736.917969 C 1398.398438 739.476562 1393.933594 744.464844 1388.199219 747.570312 C 1387.15625 748.132812 1386.128906 748.605469 1385.109375 748.988281 C 1373.125 753.5 1362.8125 745.996094 1351.210938 746.355469 C 1338.125 746.671875 1322.390625 751.210938 1308.726562 756.351562 C 1305.632812 757.511719 1302.640625 758.714844 1299.804688 759.898438 C 1280.464844 768.03125 1263.746094 779.070312 1243.738281 786.59375 C 1235.25 789.792969 1226.167969 792.351562 1216.039062 793.78125 C 1202.589844 795.726562 1188.734375 803.328125 1175.285156 804.113281 C 1159 805.03125 1159.6875 798.40625 1149.714844 795.351562 C 1139.003906 792.074219 1150.382812 788.082031 1133.515625 791.523438 C 1132.726562 791.691406 1131.925781 791.929688 1131.117188 792.230469 C 1123.992188 794.910156 1116.140625 802.554688 1110.214844 806.148438 C 1106.960938 808.136719 1103.921875 809.601562 1101.035156 810.6875 C 1086.359375 816.210938 1075.667969 811.933594 1060.464844 817.652344 Z M 1060.472656 817.636719 " fill-opacity="1" fill-rule="nonzero"/><path fill="#3d5d4b" d="M 59.683594 744.042969 C 59.441406 744.089844 59.203125 744.140625 58.960938 744.210938 C 43.957031 748.277344 64.535156 750.585938 69.417969 751.234375 C 79.546875 752.574219 88.472656 752.179688 97.671875 754.113281 C 99.128906 756.539062 101.601562 756.289062 107.609375 758.015625 C 109.792969 758.652344 111.675781 759.457031 113.429688 760.289062 C 115.542969 761.503906 117.515625 762.675781 119.640625 763.558594 L 118.078125 762.578125 C 121.949219 764.394531 125.832031 765.652344 131.796875 764.503906 C 132.597656 764.347656 133.4375 764.152344 134.324219 763.90625 C 135.761719 763.5 137.246094 763.148438 138.785156 762.847656 C 162.265625 758.316406 196.402344 766.5625 212.082031 777.394531 C 236.988281 794.667969 286.09375 812.242188 322.402344 809.230469 C 324.414062 809.066406 326.226562 808.820312 327.886719 808.496094 C 337.980469 806.554688 342.433594 802.027344 352.101562 798.742188 C 355.476562 797.578125 358.753906 796.710938 361.933594 796.09375 C 398.355469 789.070312 423.164062 815.699219 461.679688 826.03125 C 491.984375 834.144531 516.964844 833.445312 539.785156 829.039062 C 572.660156 822.699219 601.039062 808.675781 634.386719 802.246094 C 644.472656 800.304688 655.019531 799.050781 666.273438 798.914062 C 676.546875 798.808594 692.378906 798.433594 704.632812 796.070312 C 723.488281 792.433594 733.894531 784.089844 702.722656 764.777344 C 687.648438 755.398438 674.246094 754.152344 661.730469 756.566406 C 640.949219 760.574219 622.621094 774.679688 603.207031 778.425781 C 601.546875 778.746094 599.875 778.988281 598.203125 779.144531 C 557.027344 782.820312 518.5 769.253906 477.609375 777.140625 C 476.160156 777.417969 474.714844 777.726562 473.257812 778.054688 C 471.464844 778.460938 469.679688 778.84375 467.898438 779.1875 C 449.9375 782.65625 432.28125 782.941406 414.578125 780.894531 C 396.226562 778.703125 379.863281 771.792969 361.976562 769.855469 C 356.351562 769.285156 348.988281 772.21875 343.4375 770.605469 C 340.085938 769.667969 339.996094 766.71875 336.472656 765.945312 C 335.257812 765.691406 333.726562 765.902344 332.136719 766.207031 C 331.34375 766.359375 330.53125 766.539062 329.746094 766.695312 C 328.5625 766.929688 327.414062 767.101562 326.414062 767.0625 C 317.613281 766.832031 305.289062 767.621094 300.28125 761.683594 C 293.5 753.679688 293.480469 744.988281 280.492188 741.289062 C 280.199219 741.207031 279.90625 741.132812 279.679688 741.035156 C 269.496094 738.460938 258.726562 734.507812 249.007812 736.382812 C 245.867188 736.992188 242.828125 738.207031 239.957031 740.277344 C 233.5 745.003906 226.585938 747.953125 218.808594 749.453125 C 214.722656 750.242188 210.386719 750.632812 205.761719 750.667969 C 198.589844 750.667969 192.734375 747.457031 185.445312 748.3125 C 184.640625 748.394531 183.863281 748.515625 183.105469 748.660156 C 178.574219 749.527344 174.660156 751.351562 170.371094 752.183594 C 168.316406 752.582031 166.179688 752.75 163.839844 752.476562 C 158.492188 751.921875 154.617188 747.910156 149.386719 747.609375 C 148.449219 747.5625 147.558594 747.636719 146.6875 747.8125 C 143.464844 748.433594 140.605469 750.226562 137.398438 750.851562 C 136.265625 751.066406 135.085938 751.140625 133.835938 750.960938 C 131.847656 750.65625 124.039062 746.296875 122.773438 745.09375 C 120.277344 742.890625 122.765625 736.820312 120.292969 735.085938 C 118.605469 733.9375 117.214844 733.628906 116.03125 733.863281 C 112.160156 734.613281 110.421875 741.101562 107.199219 742.992188 C 105.960938 743.707031 104.476562 744.171875 102.878906 744.480469 C 99.097656 745.207031 94.652344 745.074219 91.15625 745.261719 C 89.453125 745.386719 87.753906 745.6875 86.058594 746.019531 C 85.417969 746.136719 84.789062 746.265625 84.152344 746.386719 C 81.828125 746.835938 79.511719 747.234375 77.191406 747.195312 C 71.671875 747.066406 65.398438 742.957031 59.691406 744.058594 Z M 59.683594 744.042969 " fill-opacity="1" fill-rule="nonzero"/><path fill="#2a2d32" d="M 677.757812 754.738281 C 675.722656 754.738281 673.601562 754.855469 671.375 755.089844 C 650.046875 757.324219 640.703125 772.226562 622.628906 778.125 C 619.863281 779.023438 617.058594 779.375 614.199219 779.375 C 604.945312 779.375 595.152344 775.609375 584.441406 774.058594 C 580.777344 773.53125 577.363281 773.285156 574.183594 773.285156 C 544.179688 773.285156 534.46875 795.222656 520.390625 811.519531 C 511.746094 821.566406 501.207031 824.34375 489.042969 824.34375 C 474.714844 824.34375 458.132812 820.488281 439.753906 820.121094 C 439.488281 820.121094 439.226562 820.113281 438.949219 820.113281 C 418.238281 820.113281 372.65625 832.898438 388.226562 857.035156 C 399.652344 874.878906 440.277344 879.425781 460.136719 879.425781 C 461.914062 879.425781 463.53125 879.386719 464.941406 879.320312 C 498.652344 877.601562 523.519531 864.328125 558.699219 864.328125 C 559.554688 864.328125 560.414062 864.335938 561.285156 864.351562 C 572.4375 864.597656 584.398438 865.917969 595.617188 865.917969 C 603.0625 865.917969 610.1875 865.332031 616.53125 863.472656 C 640.636719 856.425781 646.730469 835.832031 656.546875 818.835938 C 662.082031 809.269531 668.636719 805.359375 675.328125 805.359375 C 684.273438 805.359375 693.472656 812.351562 700.832031 822.160156 C 710.917969 835.574219 717.285156 843.160156 737.121094 848.039062 C 755.402344 852.511719 778.832031 860.5 797.652344 861.445312 C 798.644531 861.5 799.613281 861.53125 800.578125 861.53125 C 825.4375 861.53125 843.175781 844.300781 859.46875 831.710938 C 873.3125 820.988281 886.511719 818.160156 901.453125 818.160156 C 909.160156 818.160156 917.335938 818.910156 926.296875 819.722656 C 927.992188 819.871094 929.609375 819.9375 931.164062 819.9375 C 957.058594 819.9375 964.46875 800.167969 986.824219 793.910156 C 995.078125 791.605469 1012.417969 795.261719 1015.933594 787.878906 C 1023.515625 772.023438 971.113281 763.359375 959.261719 762.75 C 958.542969 762.71875 957.847656 762.703125 957.164062 762.703125 C 936.429688 762.703125 929.925781 777.351562 911.09375 777.351562 C 907.578125 777.351562 903.625 776.839844 899.074219 775.625 C 881.871094 770.972656 856.867188 763.988281 837.859375 763.988281 C 831.132812 763.988281 825.152344 764.867188 820.535156 767.019531 C 801.238281 776.015625 788.949219 804.8125 765.796875 804.8125 C 755.644531 804.8125 743.40625 799.269531 727.574219 784.089844 C 710.78125 767.972656 699.660156 754.742188 677.761719 754.742188 Z M 677.757812 754.738281 " fill-opacity="1" fill-rule="nonzero"/><path fill="#5f6454" d="M 165.59375 821.140625 C 187.394531 821.140625 213.230469 825.304688 221.375 839.46875 C 230.785156 855.933594 192.9375 850.574219 197.945312 867.382812 C 200.992188 877.660156 212.472656 880.476562 227.132812 880.476562 C 244.832031 880.476562 267.148438 876.378906 284.808594 876.378906 C 306.566406 876.378906 321.257812 882.605469 311.492188 910.398438 C 306.957031 923.257812 288.296875 926.917969 266.863281 926.917969 C 241.578125 926.917969 212.441406 921.824219 198.148438 920.757812 C 178.71875 919.339844 158.941406 916.421875 141.070312 910.601562 C 134.164062 908.363281 127.664062 905.722656 121.507812 902.609375 C 112.769531 898.136719 104.851562 892.71875 98.144531 886.011719 C 96.113281 883.980469 94.285156 882.011719 92.386719 879.980469 C 81.289062 868.058594 70.453125 856.335938 53.527344 848.078125 C 48.652344 845.636719 32.601562 836.152344 38.292969 830.601562 C 40.160156 828.769531 43.933594 828.28125 47.839844 828.28125 C 51.75 828.28125 55.796875 828.777344 58.203125 828.914062 C 67.078125 829.453125 101.0625 830.398438 90.5625 843.8125 C 87.382812 847.882812 83.386719 847.542969 78.175781 848.894531 C 75.0625 849.773438 70.796875 853.570312 73.839844 856.140625 C 75.46875 857.5 79.1875 857.296875 81.289062 857.363281 C 83.28125 857.433594 85.316406 857.484375 87.347656 857.484375 C 89.378906 857.484375 91.410156 857.441406 93.40625 857.296875 C 98.886719 856.890625 103.898438 854.722656 109.253906 854.25 C 114.261719 853.777344 118.800781 853.847656 123.199219 851.542969 C 135.183594 845.308594 119.480469 830.070312 134.847656 824.582031 C 140.066406 822.769531 152.050781 821.15625 165.601562 821.15625 Z M -32.109375 722.140625 C -42.832031 722.140625 -53.855469 723.261719 -63.875 724.4375 C -64.820312 724.574219 -66.042969 724.707031 -67.324219 724.84375 L -67.324219 735.214844 C -65.898438 735.214844 -64.484375 735.160156 -63.171875 735.160156 C -61.859375 735.160156 -60.660156 735.214844 -59.675781 735.414062 C -52.972656 736.707031 -49.386719 739.28125 -42.140625 739.484375 C -41.753906 739.488281 -41.363281 739.496094 -40.972656 739.496094 C -36.617188 739.496094 -32.207031 738.851562 -27.855469 738.597656 C -24.257812 738.394531 -20.777344 738.289062 -17.371094 738.289062 C -7.023438 738.289062 2.679688 739.265625 13.375 741.507812 C 32.398438 745.640625 51.15625 755.667969 70.046875 757.023438 C 71.269531 759.394531 71.945312 761.496094 71.875 763.734375 C 71.671875 773.890625 25.566406 772.675781 56.847656 797.0625 C 63.753906 802.480469 116.160156 817.726562 83.523438 821.71875 C 82.148438 821.882812 80.734375 821.957031 79.269531 821.957031 C 68.710938 821.957031 56.171875 818.039062 45.472656 815.960938 C 36.058594 814.132812 26.917969 814.0625 17.710938 812.984375 C 17.167969 811.355469 16.832031 809.667969 16.765625 807.972656 C 15.75 792.117188 21.707031 783.511719 -8.285156 780.464844 C -9.582031 780.335938 -10.832031 780.269531 -12.027344 780.269531 C -27.757812 780.269531 -35.117188 791 -40.71875 801.324219 C -45.832031 810.929688 -49.433594 820.15625 -56.617188 820.15625 C -59.511719 820.15625 -62.992188 818.65625 -67.390625 815.078125 L -67.390625 868.320312 C -65.78125 868.582031 -64.070312 868.726562 -62.261719 868.726562 C -57.539062 868.726562 -52.0625 867.789062 -45.457031 865.679688 C -41.941406 879.5 -45.121094 915.199219 -21.152344 925.359375 C -17.394531 926.949219 -14.058594 927.625 -11.042969 927.625 C -2.652344 927.625 3.25 922.425781 8.777344 917.4375 C 10.667969 915.738281 12.496094 914.050781 14.394531 912.625 C 24.667969 907.683594 36.59375 899.628906 48.800781 899.628906 C 51.46875 899.628906 54.164062 900.011719 56.847656 900.90625 C 59.351562 901.582031 61.855469 902.324219 64.363281 903.210938 C 81.894531 907.613281 107.894531 909.78125 122.449219 918.996094 C 128.144531 922.589844 129.832031 929.703125 136.265625 932.480469 C 138.46875 933.441406 140.898438 933.734375 143.425781 933.734375 C 147.605469 933.734375 152.027344 932.914062 156.128906 932.914062 C 156.925781 932.914062 157.707031 932.945312 158.46875 933.019531 C 186.089844 935.457031 210.335938 946.429688 237.347656 949.953125 C 241.148438 950.464844 244.726562 950.683594 248.144531 950.683594 C 267.097656 950.683594 281.246094 944.003906 301.667969 942.910156 C 303.679688 942.796875 305.613281 942.746094 307.496094 942.746094 C 334.914062 942.746094 350.007812 954.230469 373.707031 962.289062 C 380.792969 964.675781 386.3125 965.742188 391.042969 965.742188 C 402.667969 965.742188 409.460938 959.304688 422.796875 950.300781 C 433.699219 942.917969 448.863281 923.136719 464.980469 922.523438 C 465.300781 922.515625 465.625 922.507812 465.941406 922.507812 C 484.101562 922.507812 494.871094 941.234375 512.171875 945.761719 C 528.558594 950.097656 544.945312 956.601562 560.917969 961.34375 C 576.484375 966.019531 592.871094 967.773438 606.886719 975.097656 C 619.140625 981.402344 626.25 992.445312 639.113281 998.132812 C 661.386719 1008.023438 689.148438 1002.46875 711.5625 1013.304688 C 714.675781 1014.863281 717.792969 1016.484375 720.839844 1018.179688 C 732.351562 1024.476562 740.945312 1031.933594 750.632812 1039.117188 C 753.8125 1041.472656 756.511719 1042.347656 759.046875 1042.347656 C 764.613281 1042.347656 769.375 1038.117188 776.625 1035.933594 C 783.601562 1033.832031 805.265625 1038.238281 802.085938 1026.789062 C 796.257812 1025.84375 795.382812 1019 791.933594 1015.878906 C 790.238281 1014.390625 787.460938 1014.722656 785.632812 1012.964844 C 780.894531 1008.222656 777.039062 1006.191406 771.347656 1002.066406 C 767.078125 999.019531 766.132812 994.882812 762.675781 991.566406 C 758.34375 987.492188 753.265625 986.921875 747.902344 986.921875 C 745.828125 986.921875 743.695312 987.003906 741.558594 987.003906 C 737.855469 987.003906 734.097656 986.742188 730.445312 985.332031 C 718.53125 980.726562 716.699219 973.066406 702.074219 969.003906 C 697.214844 967.632812 692.828125 967.183594 688.601562 967.183594 C 681.582031 967.183594 674.988281 968.414062 667.347656 968.667969 C 660.484375 968.878906 655.019531 971.902344 649.453125 971.902344 C 646.003906 971.902344 642.523438 970.746094 638.640625 967.039062 C 627.339844 956.28125 638.488281 952.8125 657.367188 952.8125 C 687.910156 952.8125 738.6875 961.878906 747.3125 963.714844 C 756.273438 965.613281 771.128906 971.59375 783.121094 971.59375 C 789.976562 971.59375 795.898438 969.636719 799.242188 963.851562 C 808.117188 948.402344 775.410156 934.789062 760.382812 932.210938 C 757.285156 931.675781 754.539062 931.453125 752.042969 931.453125 C 740.226562 931.453125 733.933594 936.53125 722.195312 938.378906 C 720.777344 938.59375 719.070312 938.699219 717.121094 938.699219 C 690.460938 938.699219 619.410156 919.417969 662.683594 907.488281 C 671.523438 905.054688 684.976562 901.714844 696.871094 901.714844 C 699.546875 901.714844 702.144531 901.882812 704.597656 902.273438 C 711.90625 903.496094 721.320312 909.519531 729.304688 911.351562 C 733.820312 912.371094 741.410156 914.203125 747.753906 914.203125 C 753.589844 914.203125 758.367188 912.648438 758.6875 907.488281 C 758.824219 904.710938 746.636719 903.699219 744.402344 903.351562 C 737.832031 902.40625 731.808594 899.351562 725.511719 898.609375 C 721.582031 898.207031 717.660156 897.867188 714.136719 896.375 C 710.753906 895.015625 708.113281 892.78125 704.183594 891.96875 C 701.664062 891.4375 698.617188 891.257812 695.417969 891.257812 C 688.808594 891.257812 681.503906 892.039062 676.632812 892.179688 C 654.695312 892.921875 635.398438 898.207031 614.882812 901.183594 C 606.519531 902.398438 598.632812 902.984375 591.003906 902.984375 C 556.507812 902.984375 527.589844 890.988281 486.78125 870.910156 C 474.929688 865.078125 463.285156 860.335938 453.671875 852.480469 C 432.074219 834.871094 402.277344 812.105469 369.574219 809.464844 C 367.75 809.316406 365.960938 809.238281 364.21875 809.238281 C 345.898438 809.238281 331.835938 816.914062 316.351562 816.914062 C 309.09375 816.914062 301.527344 815.226562 293.066406 810.273438 C 276.003906 800.320312 270.253906 781.890625 254.878906 770.574219 C 224.3125 747.96875 194.902344 742.746094 166.269531 742.746094 C 145.0625 742.746094 124.273438 745.613281 103.753906 746.386719 C 96.496094 746.679688 89.714844 747.023438 83.011719 747.023438 C 70.96875 747.023438 59.15625 745.890625 45.195312 741.230469 C 25.222656 734.523438 4.976562 726.058594 -16.621094 723.074219 C -21.609375 722.40625 -26.828125 722.128906 -32.117188 722.128906 Z M -32.109375 722.140625 " fill-opacity="1" fill-rule="nonzero"/><path fill="#3d5d4b" d="M 1033.175781 774.816406 C 1020.417969 774.816406 1010.933594 779.691406 999.796875 784.480469 C 1021.730469 795.660156 1009.679688 810.695312 1031.007812 824.921875 C 1039.0625 830.269531 1052.945312 830 1062.21875 833.316406 C 1074.542969 837.789062 1080.292969 843.003906 1094.105469 844.566406 C 1096.109375 844.78125 1097.9375 844.878906 1099.625 844.878906 C 1109.921875 844.878906 1115.1875 841.269531 1125.25 839.824219 C 1128.753906 839.335938 1132.097656 839.101562 1135.316406 839.101562 C 1172.472656 839.101562 1191.792969 869.984375 1227.691406 887.445312 C 1239.609375 893.207031 1250.917969 897.265625 1261.679688 900.042969 C 1263.441406 896.863281 1265.058594 893.46875 1266.6875 890.085938 C 1267.363281 888.667969 1268.105469 887.039062 1268.855469 885.34375 C 1256.054688 879.515625 1243.394531 872.335938 1231.480469 864.140625 C 1221.113281 857.027344 1209.746094 849.980469 1201.078125 840.566406 C 1199.855469 839.214844 1198.773438 837.925781 1197.898438 836.574219 C 1192.273438 835.011719 1186.589844 833.121094 1180.558594 831.023438 C 1153.210938 826.144531 1106.757812 828.921875 1088.683594 807.3125 C 1076.902344 793.21875 1073.589844 785.027344 1053.273438 778.386719 C 1045.566406 775.851562 1039.019531 774.824219 1033.160156 774.824219 Z M 1033.175781 774.816406 " fill-opacity="1" fill-rule="nonzero"/><path fill="#3d5d4b" d="M 909.183594 754.738281 C 902.050781 754.738281 894.941406 756.257812 888.28125 758.796875 C 883.40625 760.695312 862.082031 762.523438 865.941406 769.503906 C 866.910156 771.273438 869.398438 771.820312 872.488281 771.820312 C 877.347656 771.820312 883.6875 770.46875 887.878906 770.46875 C 888.84375 770.46875 889.691406 770.539062 890.382812 770.71875 C 893.972656 771.597656 895.324219 774.3125 898.847656 775.121094 C 899.398438 775.242188 899.964844 775.289062 900.550781 775.289062 C 903.078125 775.289062 905.882812 774.394531 908.191406 774.175781 C 908.890625 774.109375 909.542969 774.070312 910.152344 774.070312 C 914.214844 774.070312 916.789062 775.496094 920.785156 776.617188 C 924.375 777.5625 927.691406 777.832031 931.011719 779.054688 C 933.71875 780 936.292969 781.019531 938.863281 782.03125 C 941.371094 782.976562 943.808594 783.929688 946.445312 784.742188 C 963.035156 789.957031 980.367188 793.339844 997.15625 798.089844 C 1005.421875 800.460938 1013.8125 803.035156 1021.328125 806.621094 C 1026.207031 808.886719 1032.335938 812.046875 1038.378906 812.046875 C 1040.300781 812.046875 1042.210938 811.722656 1044.070312 810.957031 C 1047.320312 809.667969 1048 806.351562 1050.980469 804.933594 C 1052.132812 804.386719 1053.339844 804.152344 1054.554688 804.152344 C 1057.816406 804.152344 1061.125 805.832031 1063.644531 807.507812 C 1066.757812 809.539062 1068.992188 812.722656 1073.460938 812.992188 C 1074.144531 813.035156 1074.78125 813.058594 1075.390625 813.058594 C 1088.871094 813.058594 1083.261719 801.160156 1078.402344 795.777344 C 1076.035156 793.207031 1073.328125 790.5625 1070.890625 788.261719 C 1061.597656 781.742188 1049.695312 773.1875 1038.003906 773.1875 C 1035.726562 773.1875 1033.453125 773.507812 1031.210938 774.238281 C 1022.160156 776.527344 1012.824219 777.554688 1003.464844 777.554688 C 993.429688 777.554688 983.367188 776.375 973.59375 774.304688 C 964.316406 772.347656 955.445312 769.699219 946.574219 766.785156 C 938.722656 764.214844 932.355469 760.214844 924.839844 757.4375 C 919.71875 755.570312 914.441406 754.738281 909.175781 754.738281 Z M 909.183594 754.738281 " fill-opacity="1" fill-rule="nonzero"/><path fill="#2a2d32" d="M 133.871094 834.1875 C 150.804688 834.1875 163.390625 828.90625 178.171875 823.722656 C 149.058594 811.609375 165.046875 795.3125 136.746094 779.902344 C 126.050781 774.101562 107.632812 774.394531 95.320312 770.800781 C 78.964844 765.953125 71.328125 760.304688 52.992188 758.617188 C 50.332031 758.375 47.910156 758.269531 45.667969 758.269531 C 32.003906 758.269531 25.011719 762.179688 11.65625 763.753906 C 7.007812 764.289062 2.566406 764.535156 -1.699219 764.535156 C -51.023438 764.535156 -76.660156 731.0625 -124.304688 712.148438 C -140.121094 705.90625 -155.125 701.5 -169.417969 698.492188 C -171.757812 701.945312 -173.910156 705.613281 -176.070312 709.28125 C -176.972656 710.820312 -177.953125 712.582031 -178.953125 714.421875 C -161.964844 720.738281 -145.160156 728.519531 -129.34375 737.398438 C -115.589844 745.101562 -100.496094 752.742188 -88.992188 762.945312 C -87.371094 764.40625 -85.9375 765.8125 -84.769531 767.273438 C -77.304688 768.960938 -69.753906 771.019531 -61.761719 773.292969 C -25.457031 778.574219 36.195312 775.566406 60.183594 798.984375 C 75.820312 814.25 80.222656 823.136719 107.183594 830.332031 C 117.417969 833.078125 126.101562 834.1875 133.871094 834.1875 Z M 133.871094 834.1875 " fill-opacity="1" fill-rule="nonzero"/></svg>