<svg xmlns="http://www.w3.org/2000/svg" xmlns:xlink="http://www.w3.org/1999/xlink" width="1920" zoomAndPan="magnify" viewBox="0 0 1440 809.999993" height="1080" preserveAspectRatio="xMidYMid meet" version="1.0"><defs><linearGradient x1="960" gradientTransform="matrix(0.75, 0, 0, 0.75, 0.00000622222, 0.00002)" y1="0" x2="960" gradientUnits="userSpaceOnUse" y2="1079.999955" id="e4acd6af6c"><stop stop-opacity="1" stop-color="rgb(49.398804%, 66.699219%, 56.898499%)" offset="0"/><stop stop-opacity="1" stop-color="rgb(49.539185%, 66.75415%, 56.97937%)" offset="0.0078125"/><stop stop-opacity="1" stop-color="rgb(49.821472%, 66.867065%, 57.141113%)" offset="0.015625"/><stop stop-opacity="1" stop-color="rgb(50.10376%, 66.978455%, 57.302856%)" offset="0.0234375"/><stop stop-opacity="1" stop-color="rgb(50.384521%, 67.089844%, 57.4646%)" offset="0.03125"/><stop stop-opacity="1" stop-color="rgb(50.666809%, 67.202759%, 57.626343%)" offset="0.0390625"/><stop stop-opacity="1" stop-color="rgb(50.949097%, 67.314148%, 57.788086%)" offset="0.046875"/><stop stop-opacity="1" stop-color="rgb(51.231384%, 67.425537%, 57.949829%)" offset="0.0546875"/><stop stop-opacity="1" stop-color="rgb(51.512146%, 67.538452%, 58.110046%)" offset="0.0625"/><stop stop-opacity="1" stop-color="rgb(51.794434%, 67.649841%, 58.27179%)" offset="0.0703125"/><stop stop-opacity="1" stop-color="rgb(52.076721%, 67.76123%, 58.433533%)" offset="0.078125"/><stop stop-opacity="1" stop-color="rgb(52.359009%, 67.874146%, 58.595276%)" offset="0.0859375"/><stop stop-opacity="1" stop-color="rgb(52.639771%, 67.985535%, 58.757019%)" offset="0.09375"/><stop stop-opacity="1" stop-color="rgb(52.922058%, 68.096924%, 58.918762%)" offset="0.101562"/><stop stop-opacity="1" stop-color="rgb(53.204346%, 68.209839%, 59.080505%)" offset="0.109375"/><stop stop-opacity="1" stop-color="rgb(53.486633%, 68.321228%, 59.240723%)" offset="0.117188"/><stop stop-opacity="1" stop-color="rgb(53.767395%, 68.432617%, 59.402466%)" offset="0.125"/><stop stop-opacity="1" stop-color="rgb(54.049683%, 68.545532%, 59.564209%)" offset="0.132812"/><stop stop-opacity="1" stop-color="rgb(54.33197%, 68.656921%, 59.725952%)" offset="0.140625"/><stop stop-opacity="1" stop-color="rgb(54.614258%, 68.768311%, 59.887695%)" offset="0.148437"/><stop stop-opacity="1" stop-color="rgb(54.89502%, 68.881226%, 60.049438%)" offset="0.15625"/><stop stop-opacity="1" stop-color="rgb(55.177307%, 68.992615%, 60.211182%)" offset="0.164062"/><stop stop-opacity="1" stop-color="rgb(55.459595%, 69.10553%, 60.371399%)" offset="0.171875"/><stop stop-opacity="1" stop-color="rgb(55.740356%, 69.216919%, 60.533142%)" offset="0.179687"/><stop stop-opacity="1" stop-color="rgb(56.022644%, 69.328308%, 60.694885%)" offset="0.1875"/><stop stop-opacity="1" stop-color="rgb(56.304932%, 69.441223%, 60.856628%)" offset="0.195312"/><stop stop-opacity="1" stop-color="rgb(56.587219%, 69.552612%, 61.018372%)" offset="0.203125"/><stop stop-opacity="1" stop-color="rgb(56.867981%, 69.664001%, 61.180115%)" offset="0.210938"/><stop stop-opacity="1" stop-color="rgb(57.150269%, 69.776917%, 61.341858%)" offset="0.21875"/><stop stop-opacity="1" stop-color="rgb(57.432556%, 69.888306%, 61.502075%)" offset="0.226562"/><stop stop-opacity="1" stop-color="rgb(57.714844%, 69.999695%, 61.663818%)" offset="0.234375"/><stop stop-opacity="1" stop-color="rgb(57.995605%, 70.11261%, 61.825562%)" offset="0.242188"/><stop stop-opacity="1" stop-color="rgb(58.277893%, 70.223999%, 61.987305%)" offset="0.25"/><stop stop-opacity="1" stop-color="rgb(58.560181%, 70.335388%, 62.149048%)" offset="0.257812"/><stop stop-opacity="1" stop-color="rgb(58.842468%, 70.448303%, 62.310791%)" offset="0.265625"/><stop stop-opacity="1" stop-color="rgb(59.12323%, 70.559692%, 62.472534%)" offset="0.273437"/><stop stop-opacity="1" stop-color="rgb(59.405518%, 70.671082%, 62.632751%)" offset="0.28125"/><stop stop-opacity="1" stop-color="rgb(59.687805%, 70.783997%, 62.794495%)" offset="0.289062"/><stop stop-opacity="1" stop-color="rgb(59.968567%, 70.895386%, 62.956238%)" offset="0.296875"/><stop stop-opacity="1" stop-color="rgb(60.250854%, 71.006775%, 63.117981%)" offset="0.304687"/><stop stop-opacity="1" stop-color="rgb(60.533142%, 71.11969%, 63.279724%)" offset="0.3125"/><stop stop-opacity="1" stop-color="rgb(60.81543%, 71.231079%, 63.441467%)" offset="0.320312"/><stop stop-opacity="1" stop-color="rgb(61.096191%, 71.342468%, 63.60321%)" offset="0.328125"/><stop stop-opacity="1" stop-color="rgb(61.378479%, 71.455383%, 63.763428%)" offset="0.335937"/><stop stop-opacity="1" stop-color="rgb(61.660767%, 71.566772%, 63.925171%)" offset="0.34375"/><stop stop-opacity="1" stop-color="rgb(61.943054%, 71.678162%, 64.086914%)" offset="0.351562"/><stop stop-opacity="1" stop-color="rgb(62.223816%, 71.791077%, 64.248657%)" offset="0.359375"/><stop stop-opacity="1" stop-color="rgb(62.506104%, 71.902466%, 64.4104%)" offset="0.367187"/><stop stop-opacity="1" stop-color="rgb(62.788391%, 72.013855%, 64.572144%)" offset="0.375"/><stop stop-opacity="1" stop-color="rgb(63.070679%, 72.12677%, 64.733887%)" offset="0.382812"/><stop stop-opacity="1" stop-color="rgb(63.35144%, 72.238159%, 64.894104%)" offset="0.390625"/><stop stop-opacity="1" stop-color="rgb(63.633728%, 72.349548%, 65.055847%)" offset="0.398438"/><stop stop-opacity="1" stop-color="rgb(63.916016%, 72.462463%, 65.21759%)" offset="0.40625"/><stop stop-opacity="1" stop-color="rgb(64.198303%, 72.573853%, 65.379333%)" offset="0.414062"/><stop stop-opacity="1" stop-color="rgb(64.479065%, 72.685242%, 65.541077%)" offset="0.421875"/><stop stop-opacity="1" stop-color="rgb(64.761353%, 72.798157%, 65.70282%)" offset="0.429688"/><stop stop-opacity="1" stop-color="rgb(65.04364%, 72.909546%, 65.864563%)" offset="0.4375"/><stop stop-opacity="1" stop-color="rgb(65.324402%, 73.020935%, 66.02478%)" offset="0.445312"/><stop stop-opacity="1" stop-color="rgb(65.606689%, 73.13385%, 66.186523%)" offset="0.453125"/><stop stop-opacity="1" stop-color="rgb(65.888977%, 73.245239%, 66.348267%)" offset="0.460938"/><stop stop-opacity="1" stop-color="rgb(66.171265%, 73.356628%, 66.51001%)" offset="0.46875"/><stop stop-opacity="1" stop-color="rgb(66.452026%, 73.469543%, 66.671753%)" offset="0.476562"/><stop stop-opacity="1" stop-color="rgb(66.734314%, 73.580933%, 66.833496%)" offset="0.484375"/><stop stop-opacity="1" stop-color="rgb(67.016602%, 73.692322%, 66.995239%)" offset="0.492188"/><stop stop-opacity="1" stop-color="rgb(67.298889%, 73.805237%, 67.155457%)" offset="0.5"/><stop stop-opacity="1" stop-color="rgb(67.579651%, 73.916626%, 67.3172%)" offset="0.507812"/><stop stop-opacity="1" stop-color="rgb(67.861938%, 74.028015%, 67.478943%)" offset="0.515625"/><stop stop-opacity="1" stop-color="rgb(68.144226%, 74.14093%, 67.640686%)" offset="0.523437"/><stop stop-opacity="1" stop-color="rgb(68.426514%, 74.252319%, 67.802429%)" offset="0.53125"/><stop stop-opacity="1" stop-color="rgb(68.707275%, 74.365234%, 67.964172%)" offset="0.539062"/><stop stop-opacity="1" stop-color="rgb(68.989563%, 74.476624%, 68.125916%)" offset="0.546875"/><stop stop-opacity="1" stop-color="rgb(69.271851%, 74.588013%, 68.287659%)" offset="0.554687"/><stop stop-opacity="1" stop-color="rgb(69.552612%, 74.700928%, 68.447876%)" offset="0.5625"/><stop stop-opacity="1" stop-color="rgb(69.8349%, 74.812317%, 68.609619%)" offset="0.570312"/><stop stop-opacity="1" stop-color="rgb(70.117188%, 74.923706%, 68.771362%)" offset="0.578125"/><stop stop-opacity="1" stop-color="rgb(70.399475%, 75.036621%, 68.933105%)" offset="0.585937"/><stop stop-opacity="1" stop-color="rgb(70.680237%, 75.14801%, 69.094849%)" offset="0.59375"/><stop stop-opacity="1" stop-color="rgb(70.962524%, 75.259399%, 69.256592%)" offset="0.601562"/><stop stop-opacity="1" stop-color="rgb(71.244812%, 75.372314%, 69.418335%)" offset="0.609375"/><stop stop-opacity="1" stop-color="rgb(71.5271%, 75.483704%, 69.578552%)" offset="0.617187"/><stop stop-opacity="1" stop-color="rgb(71.807861%, 75.595093%, 69.740295%)" offset="0.625"/><stop stop-opacity="1" stop-color="rgb(72.090149%, 75.708008%, 69.902039%)" offset="0.632812"/><stop stop-opacity="1" stop-color="rgb(72.372437%, 75.819397%, 70.063782%)" offset="0.640625"/><stop stop-opacity="1" stop-color="rgb(72.654724%, 75.930786%, 70.225525%)" offset="0.648437"/><stop stop-opacity="1" stop-color="rgb(72.935486%, 76.043701%, 70.387268%)" offset="0.65625"/><stop stop-opacity="1" stop-color="rgb(73.217773%, 76.15509%, 70.549011%)" offset="0.664062"/><stop stop-opacity="1" stop-color="rgb(73.500061%, 76.266479%, 70.709229%)" offset="0.671875"/><stop stop-opacity="1" stop-color="rgb(73.782349%, 76.379395%, 70.870972%)" offset="0.679687"/><stop stop-opacity="1" stop-color="rgb(74.06311%, 76.490784%, 71.032715%)" offset="0.6875"/><stop stop-opacity="1" stop-color="rgb(74.345398%, 76.602173%, 71.194458%)" offset="0.695312"/><stop stop-opacity="1" stop-color="rgb(74.627686%, 76.715088%, 71.356201%)" offset="0.703125"/><stop stop-opacity="1" stop-color="rgb(74.908447%, 76.826477%, 71.517944%)" offset="0.710937"/><stop stop-opacity="1" stop-color="rgb(75.190735%, 76.937866%, 71.679688%)" offset="0.71875"/><stop stop-opacity="1" stop-color="rgb(75.473022%, 77.050781%, 71.839905%)" offset="0.726562"/><stop stop-opacity="1" stop-color="rgb(75.75531%, 77.16217%, 72.001648%)" offset="0.734375"/><stop stop-opacity="1" stop-color="rgb(75.996399%, 77.258301%, 72.140503%)" offset="0.75"/><stop stop-opacity="1" stop-color="rgb(76.098633%, 77.2995%, 72.198486%)" offset="0.8125"/><stop stop-opacity="1" stop-color="rgb(76.098633%, 77.2995%, 72.198486%)" offset="0.828125"/><stop stop-opacity="1" stop-color="rgb(76.234436%, 77.427673%, 72.363281%)" offset="0.835938"/><stop stop-opacity="1" stop-color="rgb(76.550293%, 77.726746%, 72.743225%)" offset="0.839844"/><stop stop-opacity="1" stop-color="rgb(76.730347%, 77.897644%, 72.9599%)" offset="0.84375"/><stop stop-opacity="1" stop-color="rgb(76.908875%, 78.067017%, 73.175049%)" offset="0.847656"/><stop stop-opacity="1" stop-color="rgb(77.088928%, 78.237915%, 73.391724%)" offset="0.851562"/><stop stop-opacity="1" stop-color="rgb(77.267456%, 78.407288%, 73.606873%)" offset="0.855469"/><stop stop-opacity="1" stop-color="rgb(77.44751%, 78.578186%, 73.823547%)" offset="0.859375"/><stop stop-opacity="1" stop-color="rgb(77.626038%, 78.747559%, 74.038696%)" offset="0.863281"/><stop stop-opacity="1" stop-color="rgb(77.806091%, 78.918457%, 74.255371%)" offset="0.867188"/><stop stop-opacity="1" stop-color="rgb(77.984619%, 79.08783%, 74.47052%)" offset="0.871094"/><stop stop-opacity="1" stop-color="rgb(78.164673%, 79.258728%, 74.687195%)" offset="0.875"/><stop stop-opacity="1" stop-color="rgb(78.343201%, 79.428101%, 74.902344%)" offset="0.878906"/><stop stop-opacity="1" stop-color="rgb(78.521729%, 79.597473%, 75.119019%)" offset="0.882812"/><stop stop-opacity="1" stop-color="rgb(78.700256%, 79.766846%, 75.334167%)" offset="0.886719"/><stop stop-opacity="1" stop-color="rgb(78.88031%, 79.937744%, 75.550842%)" offset="0.890625"/><stop stop-opacity="1" stop-color="rgb(79.058838%, 80.107117%, 75.765991%)" offset="0.894531"/><stop stop-opacity="1" stop-color="rgb(79.238892%, 80.278015%, 75.982666%)" offset="0.898438"/><stop stop-opacity="1" stop-color="rgb(79.417419%, 80.447388%, 76.199341%)" offset="0.902344"/><stop stop-opacity="1" stop-color="rgb(79.597473%, 80.618286%, 76.416016%)" offset="0.90625"/><stop stop-opacity="1" stop-color="rgb(79.776001%, 80.787659%, 76.631165%)" offset="0.910156"/><stop stop-opacity="1" stop-color="rgb(79.956055%, 80.958557%, 76.847839%)" offset="0.914062"/><stop stop-opacity="1" stop-color="rgb(80.134583%, 81.12793%, 77.062988%)" offset="0.917969"/><stop stop-opacity="1" stop-color="rgb(80.314636%, 81.298828%, 77.279663%)" offset="0.921875"/><stop stop-opacity="1" stop-color="rgb(80.493164%, 81.468201%, 77.494812%)" offset="0.925781"/><stop stop-opacity="1" stop-color="rgb(80.673218%, 81.639099%, 77.711487%)" offset="0.929688"/><stop stop-opacity="1" stop-color="rgb(80.851746%, 81.808472%, 77.926636%)" offset="0.933594"/><stop stop-opacity="1" stop-color="rgb(81.031799%, 81.97937%, 78.143311%)" offset="0.9375"/><stop stop-opacity="1" stop-color="rgb(81.210327%, 82.148743%, 78.358459%)" offset="0.941406"/><stop stop-opacity="1" stop-color="rgb(81.390381%, 82.318115%, 78.575134%)" offset="0.945312"/><stop stop-opacity="1" stop-color="rgb(81.568909%, 82.487488%, 78.790283%)" offset="0.949219"/><stop stop-opacity="1" stop-color="rgb(81.748962%, 82.658386%, 79.006958%)" offset="0.953125"/><stop stop-opacity="1" stop-color="rgb(81.92749%, 82.827759%, 79.222107%)" offset="0.957031"/><stop stop-opacity="1" stop-color="rgb(82.107544%, 82.998657%, 79.438782%)" offset="0.960938"/><stop stop-opacity="1" stop-color="rgb(82.286072%, 83.16803%, 79.653931%)" offset="0.964844"/><stop stop-opacity="1" stop-color="rgb(82.466125%, 83.338928%, 79.870605%)" offset="0.96875"/><stop stop-opacity="1" stop-color="rgb(82.644653%, 83.508301%, 80.08728%)" offset="0.972656"/><stop stop-opacity="1" stop-color="rgb(82.823181%, 83.679199%, 80.303955%)" offset="0.976562"/><stop stop-opacity="1" stop-color="rgb(83.001709%, 83.848572%, 80.519104%)" offset="0.980469"/><stop stop-opacity="1" stop-color="rgb(83.181763%, 84.01947%, 80.735779%)" offset="0.984375"/><stop stop-opacity="1" stop-color="rgb(83.360291%, 84.188843%, 80.950928%)" offset="0.988281"/><stop stop-opacity="1" stop-color="rgb(83.540344%, 84.359741%, 81.167603%)" offset="0.992188"/><stop stop-opacity="1" stop-color="rgb(83.718872%, 84.529114%, 81.382751%)" offset="0.996094"/><stop stop-opacity="1" stop-color="rgb(83.898926%, 84.698486%, 81.599426%)" offset="1"/></linearGradient></defs><rect x="-144" width="1728" fill="#ffffff" y="-80.999999" height="971.999992" fill-opacity="1"/><rect x="-144" fill="url(#e4acd6af6c)" width="1728" y="-80.999999" height="971.999992"/><path fill="#2a2d32" d="M 1389.597656 168.386719 C 1392.769531 168.964844 1397.035156 166.5625 1399.859375 166.21875 C 1403.183594 165.738281 1405.042969 164.222656 1408.320312 162.03125 C 1411.152344 160.070312 1414.511719 160.519531 1417.40625 159.34375 C 1422.289062 157.445312 1427.109375 155.539062 1432.046875 153.339844 C 1442.738281 148.632812 1453.617188 142.097656 1464.355469 140.183594 C 1468.894531 139.464844 1473.585938 138.609375 1478.214844 137.746094 C 1478.867188 137.550781 1482.984375 111.398438 1483.523438 108.402344 C 1483.125 109.027344 1482.261719 109.0625 1481.257812 108.875 C 1479.90625 108.628906 1478.289062 107.992188 1477.171875 107.789062 C 1476.878906 107.734375 1476.625 107.710938 1476.421875 107.734375 C 1473.421875 107.96875 1470.390625 109.117188 1467.402344 109.65625 C 1465.367188 110.21875 1463.238281 111.375 1461.214844 111.929688 C 1461.011719 111.894531 1460.785156 112.003906 1460.585938 111.96875 C 1460.089844 112.074219 1459.65625 112.074219 1459.242188 111.996094 C 1457.988281 111.773438 1457.03125 110.863281 1455.753906 110.167969 C 1453.96875 109.289062 1451.886719 108.417969 1449.710938 108.019531 C 1447.035156 107.53125 1444.214844 107.78125 1441.679688 109.625 C 1439.882812 110.84375 1438.847656 112.359375 1436.777344 112.753906 C 1434.191406 113.363281 1431.566406 113.039062 1429.03125 113.363281 C 1420.234375 114.089844 1412.894531 120.019531 1404.496094 125.769531 C 1398.5625 129.640625 1388.988281 135.019531 1386.574219 146.488281 C 1385.515625 151.554688 1384.691406 161.453125 1386.234375 165.445312 C 1386.992188 167.289062 1388.1875 168.125 1389.589844 168.378906 Z M 1389.597656 168.386719 " fill-opacity="1" fill-rule="nonzero"/><path fill="#3d5d4b" d="M 455.152344 51.796875 C 472.148438 49.148438 488.578125 43.21875 503.605469 35.273438 C 514.589844 29.359375 564.824219 17.496094 553.277344 3.84375 C 550.375 0.371094 544.25 0.113281 536.890625 1.261719 C 525.3125 3.0625 510.664062 8.324219 500.667969 9.886719 C 498.363281 10.246094 496.316406 10.402344 494.609375 10.28125 C 485.757812 9.710938 481.613281 4.355469 472.945312 3.902344 C 471.601562 3.851562 470.230469 3.964844 468.828125 4.179688 C 462.800781 5.121094 456.417969 8.089844 450.988281 9.417969 C 449.355469 9.832031 447.816406 10.148438 446.347656 10.378906 C 436.660156 11.886719 430.054688 9.757812 420.140625 8.820312 C 411.269531 8.097656 403.269531 8.75 394.945312 7.339844 C 388.167969 6.296875 381.695312 5.050781 375.222656 3.804688 C 368.933594 2.679688 362.804688 1.539062 356.238281 0.757812 C 314.941406 -4.367188 272.480469 -5.257812 230.855469 -9.289062 C 210.359375 -11.351562 189.484375 -13.800781 170.363281 -18.773438 C 157.96875 -21.859375 142.289062 -26.414062 127.875 -24.171875 C 123.304688 -23.457031 118.847656 -22.054688 114.671875 -19.707031 C 107.359375 -15.710938 106.851562 -8.285156 100.238281 -4.109375 C 97.65625 -2.488281 94.867188 -1.535156 91.972656 -1.09375 C 84.199219 0.113281 75.746094 -2.289062 69.1875 -4.980469 C 61.078125 -8.222656 54.683594 -14.273438 43.9375 -13.207031 C 42.296875 -13.054688 40.757812 -12.867188 39.328125 -12.644531 C 7.1875 -7.644531 24.546875 16.007812 37.941406 25.839844 C 44.449219 30.53125 51.796875 35.234375 58.378906 39.308594 C 82.726562 49.957031 113.96875 64.050781 141.839844 59.714844 C 147.269531 58.867188 152.578125 57.328125 157.675781 54.917969 C 178.492188 46.613281 200.402344 40.929688 222.710938 37.457031 C 246.632812 33.734375 271.015625 32.546875 295.011719 33.394531 C 317.785156 34.199219 339.824219 36.625 361.945312 39.632812 C 381.53125 42.28125 398.050781 48.570312 416.894531 51.789062 C 429.730469 53.929688 442.589844 53.769531 455.144531 51.820312 Z M 455.152344 51.796875 " fill-opacity="1" fill-rule="nonzero"/><path fill="#3d5d4b" d="M 432.09375 140.535156 C 449.089844 137.886719 465.519531 131.960938 480.546875 124.011719 C 491.535156 118.097656 541.765625 106.234375 530.21875 92.582031 C 527.316406 89.109375 521.191406 88.855469 513.835938 90.003906 C 502.257812 91.804688 487.605469 97.0625 477.609375 98.625 C 475.308594 98.984375 473.257812 99.144531 471.550781 99.023438 C 462.703125 98.453125 458.554688 93.09375 449.886719 92.644531 C 448.542969 92.589844 447.171875 92.703125 445.769531 92.921875 C 439.742188 93.859375 433.359375 96.832031 427.929688 98.160156 C 426.296875 98.570312 424.757812 98.886719 423.289062 99.121094 C 413.601562 100.628906 406.996094 98.496094 397.082031 97.558594 C 388.210938 96.839844 380.210938 97.492188 371.886719 96.082031 C 365.109375 95.039062 358.636719 93.792969 352.164062 92.546875 C 345.875 91.421875 339.75 90.28125 333.179688 89.5 C 291.886719 84.375 249.421875 83.480469 207.796875 79.449219 C 187.304688 77.386719 166.425781 74.941406 147.304688 69.964844 C 134.910156 66.882812 119.230469 62.324219 104.820312 64.570312 C 100.246094 65.28125 95.789062 66.6875 91.613281 69.035156 C 84.304688 73.027344 83.792969 80.457031 77.179688 84.628906 C 74.601562 86.25 71.808594 87.203125 68.914062 87.644531 C 61.140625 88.855469 52.6875 86.453125 46.128906 83.757812 C 38.023438 80.515625 31.625 74.46875 20.878906 75.535156 C 19.238281 75.683594 17.699219 75.871094 16.269531 76.097656 C -15.871094 81.09375 1.488281 104.75 14.882812 114.578125 C 21.390625 119.269531 28.738281 123.976562 35.324219 128.050781 C 59.671875 138.699219 90.910156 152.792969 118.78125 148.453125 C 124.210938 147.605469 129.519531 146.066406 134.617188 143.660156 C 155.433594 135.351562 177.34375 129.671875 199.652344 126.195312 C 223.574219 122.472656 247.957031 121.289062 271.953125 122.136719 C 294.726562 122.9375 316.765625 125.363281 338.886719 128.371094 C 358.472656 131.019531 374.992188 137.308594 393.835938 140.53125 C 406.671875 142.667969 419.53125 142.511719 432.085938 140.558594 Z M 432.09375 140.535156 " fill-opacity="1" fill-rule="nonzero"/><path fill="#5f6454" d="M 1332.316406 175.449219 C 1332.808594 175.34375 1333.320312 175.230469 1333.835938 175.109375 C 1373.550781 165.871094 1319.117188 139.816406 1313.710938 123.667969 C 1311.140625 116.050781 1319.949219 108.140625 1317.070312 99.390625 C 1314.160156 90.871094 1306.753906 84.050781 1296.515625 78.039062 C 1273.765625 64.710938 1242.542969 58.769531 1216.753906 56.320312 C 1161.761719 51.113281 1108.835938 59.375 1052.746094 49.304688 C 1024.386719 44.1875 991.019531 30.167969 963.605469 32.78125 C 957.628906 33.34375 951.808594 34.3125 946.085938 35.511719 C 928.339844 39.242188 911.453125 45.277344 893.492188 49.042969 C 889.496094 49.882812 885.453125 50.613281 881.328125 51.175781 C 852.144531 55.160156 815.277344 54.859375 785.835938 61.042969 C 778.324219 62.617188 771.289062 64.613281 764.996094 67.21875 C 746.882812 74.617188 746.421875 90.949219 773.914062 96.921875 C 788.65625 100.1875 831.261719 90.488281 843.507812 99.367188 C 849.402344 103.59375 843.191406 115 840.089844 117.671875 C 836.929688 120.394531 832.167969 122.082031 826.832031 123.203125 C 820.195312 124.597656 812.671875 125.109375 806.320312 125.65625 C 796.894531 126.488281 780.550781 125.648438 768.890625 128.101562 C 762.296875 129.484375 757.207031 131.914062 755.691406 136.289062 C 752.4375 145.730469 767.261719 156.527344 779.566406 161.054688 C 802.496094 169.429688 847.742188 172.378906 871.808594 167.328125 C 874.085938 166.847656 876.171875 166.300781 878.03125 165.675781 C 893.191406 160.625 899.230469 147.3125 914.839844 142.984375 C 915.5 142.804688 916.152344 142.644531 916.796875 142.511719 C 932.65625 139.179688 943.101562 149.023438 960.191406 151.042969 C 968.207031 151.996094 975.039062 151.667969 981.015625 150.40625 C 1010.964844 144.117188 1019.550781 114.722656 1048.914062 108.554688 C 1052.597656 107.78125 1056.609375 107.367188 1061.023438 107.421875 C 1093.546875 107.773438 1124.921875 120.117188 1156.691406 129.386719 C 1190.132812 139.125 1216.257812 139.996094 1247.070312 136.445312 C 1263.867188 134.570312 1281.21875 130.324219 1294.230469 146.375 C 1305.222656 159.882812 1303.175781 181.550781 1332.300781 175.441406 Z M 1332.316406 175.449219 " fill-opacity="1" fill-rule="nonzero"/><path fill="#3d5d4b" d="M 740.523438 160.949219 C 746.679688 160.949219 752.753906 160.410156 758.023438 160.222656 C 781.585938 159.34375 825.59375 154.9375 838.316406 139.890625 C 855.65625 119.359375 800 93.070312 776.84375 90.09375 C 774.160156 89.746094 771.558594 89.597656 769.007812 89.597656 C 743.671875 89.597656 724.46875 105.011719 700.523438 105.011719 C 695.945312 105.011719 691.191406 104.449219 686.1875 103.097656 C 660.371094 96.101562 627.460938 71.40625 602.765625 71.40625 C 596.835938 71.40625 591.375 72.832031 586.601562 76.269531 C 578.34375 82.226562 566.902344 91.105469 575.292969 102.757812 C 582.265625 112.351562 610.476562 131.433594 623.371094 131.433594 C 623.867188 131.433594 624.339844 131.402344 624.78125 131.351562 C 634.636719 130.074219 638.488281 120.199219 648.703125 120.199219 C 650.414062 120.199219 652.308594 120.476562 654.4375 121.125 C 664.929688 124.246094 667.367188 132.441406 674.339844 138.464844 C 685.378906 148.085938 689.78125 146.054688 702.84375 150.121094 C 710.761719 152.558594 717.53125 157.234375 725.324219 159.269531 C 730.167969 160.566406 735.371094 160.949219 740.523438 160.949219 Z M 740.523438 160.949219 " fill-opacity="1" fill-rule="nonzero"/><path fill="#5f6454" d="M 762.800781 45.816406 C 764.832031 45.816406 766.953125 45.695312 769.183594 45.464844 C 790.507812 43.226562 799.851562 28.324219 817.921875 22.425781 C 820.6875 21.523438 823.492188 21.171875 826.351562 21.171875 C 835.605469 21.171875 845.398438 24.9375 856.105469 26.492188 C 859.773438 27.015625 863.183594 27.265625 866.363281 27.265625 C 896.363281 27.265625 906.074219 5.320312 920.148438 -10.976562 C 928.796875 -21.027344 939.332031 -23.800781 951.492188 -23.800781 C 965.824219 -23.800781 982.402344 -19.945312 1000.78125 -19.578125 C 1001.042969 -19.578125 1001.304688 -19.570312 1001.585938 -19.570312 C 1022.296875 -19.570312 1067.871094 -32.359375 1052.304688 -56.5 C 1040.875 -74.34375 1000.257812 -78.894531 980.402344 -78.894531 C 978.625 -78.894531 977.003906 -78.855469 975.59375 -78.789062 C 941.886719 -77.070312 917.023438 -63.792969 881.847656 -63.792969 C 880.992188 -63.792969 880.128906 -63.800781 879.261719 -63.816406 C 868.109375 -64.0625 856.148438 -65.382812 844.933594 -65.382812 C 837.484375 -65.382812 830.363281 -64.800781 824.019531 -62.9375 C 799.917969 -55.890625 793.820312 -35.292969 784.007812 -18.292969 C 778.472656 -8.726562 771.917969 -4.816406 765.230469 -4.816406 C 756.285156 -4.816406 747.082031 -11.8125 739.726562 -21.617188 C 729.640625 -35.035156 723.277344 -42.625 703.441406 -47.5 C 685.160156 -51.972656 661.734375 -59.964844 642.914062 -60.910156 C 641.925781 -60.964844 640.957031 -60.996094 639.988281 -60.996094 C 615.132812 -60.996094 597.398438 -43.765625 581.101562 -31.171875 C 567.261719 -20.449219 554.0625 -17.617188 539.125 -17.617188 C 531.417969 -17.617188 523.246094 -18.371094 514.285156 -19.179688 C 512.589844 -19.328125 510.96875 -19.398438 509.417969 -19.398438 C 483.523438 -19.398438 476.117188 0.375 453.761719 6.636719 C 445.507812 8.9375 428.171875 5.285156 424.652344 12.667969 C 417.074219 28.527344 469.472656 37.195312 481.320312 37.800781 C 482.039062 37.832031 482.738281 37.847656 483.421875 37.847656 C 504.152344 37.847656 510.65625 23.199219 529.484375 23.199219 C 533 23.199219 536.953125 23.707031 541.503906 24.921875 C 558.707031 29.578125 583.707031 36.5625 602.714844 36.5625 C 609.441406 36.5625 615.417969 35.683594 620.035156 33.53125 C 639.328125 24.535156 651.621094 -4.269531 674.769531 -4.269531 C 684.921875 -4.269531 697.160156 1.277344 712.988281 16.457031 C 729.777344 32.578125 740.898438 45.808594 762.792969 45.808594 Z M 762.800781 45.816406 " fill-opacity="1" fill-rule="nonzero"/><path fill="#2a2d32" d="M 1279.328125 117.117188 C 1280.710938 117.117188 1282.140625 117.0625 1283.632812 116.9375 C 1289.394531 92.75 1263.464844 91.128906 1244.980469 83.9375 C 1201.046875 67 1170.039062 36.78125 1121.695312 24.25 C 1110.882812 21.441406 1101.554688 20.636719 1092.75 20.636719 C 1080.882812 20.636719 1069.96875 22.101562 1057.695312 22.101562 C 1054.449219 22.101562 1051.105469 22.003906 1047.632812 21.742188 C 1021.636719 19.777344 1008.96875 -0.890625 986.5625 -11.050781 C 979.148438 -14.421875 971.980469 -15.945312 965.769531 -15.945312 C 946.980469 -15.945312 936.902344 -2.015625 954.808594 16.925781 C 960.5 22.949219 967.261719 28.441406 974.175781 33.660156 C 979.117188 37.320312 982.914062 42.738281 987.988281 45.988281 C 992.59375 48.832031 1001.597656 47.617188 998.960938 54.257812 C 996.851562 54.574219 994.917969 54.714844 993.109375 54.714844 C 979.359375 54.714844 973.621094 46.3125 961.113281 40.984375 C 940.941406 32.449219 920.425781 23.300781 897 21.875 C 896.304688 21.832031 895.570312 21.800781 894.828125 21.800781 C 887.238281 21.800781 877.535156 24.332031 874.394531 30.003906 C 873.515625 31.496094 872.632812 33.53125 873.179688 35.226562 C 873.652344 36.714844 874.941406 37.058594 876.222656 38.070312 C 879.671875 40.847656 880.488281 44.914062 884.554688 47.285156 C 887.125 48.773438 891.121094 48.441406 894.167969 48.984375 C 895.871094 49.277344 897.40625 49.621094 899.199219 49.621094 C 899.476562 49.621094 899.769531 49.613281 900.054688 49.589844 C 901.996094 49.449219 903.628906 49.34375 905.289062 49.34375 C 906.800781 49.34375 908.332031 49.433594 910.148438 49.660156 C 916.640625 50.605469 925.308594 52.164062 924.972656 58.128906 C 911.429688 61.246094 909.125 67.953125 923.210938 70.796875 C 925 71.171875 926.695312 71.324219 928.332031 71.324219 C 935.597656 71.324219 941.519531 68.222656 947.992188 67.339844 C 949.167969 67.171875 950.292969 67.097656 951.382812 67.097656 C 964.179688 67.097656 971.191406 77.753906 982.175781 81.5 C 994.535156 85.808594 1010.859375 87.097656 1025.453125 87.097656 C 1028.757812 87.097656 1031.984375 87.03125 1035.050781 86.917969 C 1056.007812 86.113281 1075.535156 81.664062 1096.90625 81.664062 C 1105.972656 81.664062 1115.375 82.46875 1125.363281 84.6875 C 1138.632812 87.601562 1154.269531 85.363281 1167.136719 89.363281 C 1182.703125 94.242188 1179.726562 100.199219 1187.988281 106.570312 C 1196.859375 113.417969 1184.808594 113.144531 1201.800781 115.855469 C 1202.597656 115.976562 1203.429688 116.035156 1204.292969 116.035156 C 1211.902344 116.035156 1221.9375 111.636719 1228.746094 110.363281 C 1232.492188 109.648438 1235.851562 109.347656 1238.925781 109.347656 C 1254.605469 109.347656 1263.109375 117.117188 1279.34375 117.117188 Z M 1279.328125 117.117188 " fill-opacity="1" fill-rule="nonzero"/><path fill="#5f6454" d="M 1207.007812 -15.960938 C 1185.207031 -15.960938 1159.375 -20.125 1151.230469 -34.292969 C 1141.820312 -50.757812 1179.667969 -45.402344 1174.65625 -62.210938 C 1171.613281 -72.492188 1160.132812 -75.304688 1145.472656 -75.304688 C 1127.777344 -75.304688 1105.460938 -71.207031 1087.800781 -71.207031 C 1066.046875 -71.207031 1051.359375 -77.4375 1061.121094 -105.234375 C 1065.660156 -118.097656 1084.316406 -121.757812 1105.746094 -121.757812 C 1131.03125 -121.757812 1160.164062 -116.664062 1174.457031 -115.597656 C 1193.882812 -114.179688 1213.65625 -111.257812 1231.527344 -105.4375 C 1238.433594 -103.199219 1244.933594 -100.558594 1251.089844 -97.445312 C 1259.824219 -92.972656 1267.746094 -87.554688 1274.449219 -80.84375 C 1276.480469 -78.808594 1278.308594 -76.84375 1280.207031 -74.808594 C 1291.304688 -62.886719 1302.140625 -51.164062 1319.066406 -42.902344 C 1323.9375 -40.460938 1339.984375 -30.976562 1334.292969 -25.421875 C 1332.425781 -23.59375 1328.65625 -23.105469 1324.75 -23.105469 C 1320.839844 -23.105469 1316.792969 -23.601562 1314.386719 -23.734375 C 1305.515625 -24.277344 1271.53125 -25.222656 1282.03125 -38.640625 C 1285.207031 -42.707031 1289.207031 -42.367188 1294.417969 -43.71875 C 1297.527344 -44.597656 1301.796875 -48.394531 1298.75 -50.96875 C 1297.125 -52.328125 1293.40625 -52.125 1291.304688 -52.191406 C 1289.308594 -52.257812 1287.277344 -52.3125 1285.246094 -52.3125 C 1283.214844 -52.3125 1281.183594 -52.265625 1279.1875 -52.125 C 1273.707031 -51.71875 1268.695312 -49.550781 1263.34375 -49.078125 C 1258.332031 -48.605469 1253.796875 -48.671875 1249.394531 -46.367188 C 1237.414062 -40.132812 1253.113281 -24.890625 1237.75 -19.40625 C 1232.53125 -17.589844 1220.550781 -15.976562 1207 -15.976562 Z M 1404.691406 83.054688 C 1415.414062 83.054688 1426.4375 81.933594 1436.453125 80.757812 C 1437.398438 80.621094 1438.621094 80.488281 1439.902344 80.351562 L 1439.902344 69.980469 C 1438.480469 69.980469 1437.0625 70.03125 1435.75 70.03125 C 1434.4375 70.03125 1433.238281 69.980469 1432.253906 69.777344 C 1425.550781 68.488281 1421.96875 65.914062 1414.722656 65.710938 C 1414.332031 65.703125 1413.945312 65.695312 1413.554688 65.695312 C 1409.195312 65.695312 1404.789062 66.339844 1400.4375 66.597656 C 1396.839844 66.796875 1393.359375 66.902344 1389.957031 66.902344 C 1379.609375 66.902344 1369.90625 65.929688 1359.210938 63.683594 C 1340.1875 59.550781 1321.433594 49.523438 1302.546875 48.164062 C 1301.324219 45.792969 1300.648438 43.691406 1300.714844 41.457031 C 1300.917969 31.296875 1347.019531 32.511719 1315.742188 8.121094 C 1308.835938 2.703125 1256.4375 -12.546875 1289.070312 -16.539062 C 1290.441406 -16.703125 1291.859375 -16.777344 1293.320312 -16.777344 C 1303.878906 -16.777344 1316.417969 -12.859375 1327.117188 -10.78125 C 1336.527344 -8.953125 1345.667969 -8.882812 1354.878906 -7.804688 C 1355.417969 -6.175781 1355.753906 -4.484375 1355.824219 -2.789062 C 1356.835938 13.066406 1350.882812 21.675781 1380.867188 24.722656 C 1382.164062 24.847656 1383.417969 24.917969 1384.609375 24.917969 C 1400.339844 24.917969 1407.699219 14.183594 1413.296875 3.859375 C 1418.414062 -5.746094 1422.011719 -14.976562 1429.195312 -14.976562 C 1432.089844 -14.976562 1435.570312 -13.476562 1439.972656 -9.898438 L 1439.972656 -63.15625 C 1438.359375 -63.417969 1436.648438 -63.5625 1434.84375 -63.5625 C 1430.117188 -63.5625 1424.644531 -62.625 1418.039062 -60.515625 C 1414.519531 -74.335938 1417.699219 -110.042969 1393.734375 -120.203125 C 1389.976562 -121.796875 1386.640625 -122.472656 1383.628906 -122.472656 C 1375.234375 -122.472656 1369.335938 -117.269531 1363.808594 -112.28125 C 1361.917969 -110.585938 1360.089844 -108.894531 1358.191406 -107.46875 C 1347.917969 -102.523438 1335.996094 -94.472656 1323.789062 -94.472656 C 1321.117188 -94.472656 1318.425781 -94.855469 1315.742188 -95.746094 C 1313.238281 -96.421875 1310.734375 -97.167969 1308.230469 -98.050781 C 1290.699219 -102.457031 1264.699219 -104.625 1250.144531 -113.839844 C 1244.453125 -117.433594 1242.765625 -124.550781 1236.332031 -127.328125 C 1234.128906 -128.285156 1231.699219 -128.578125 1229.171875 -128.578125 C 1224.996094 -128.578125 1220.570312 -127.761719 1216.46875 -127.761719 C 1215.675781 -127.761719 1214.894531 -127.792969 1214.128906 -127.867188 C 1186.511719 -130.304688 1162.269531 -141.277344 1135.261719 -144.804688 C 1131.457031 -145.316406 1127.882812 -145.53125 1124.460938 -145.53125 C 1105.511719 -145.53125 1091.363281 -138.851562 1070.945312 -137.757812 C 1068.9375 -137.644531 1067 -137.59375 1065.117188 -137.59375 C 1037.703125 -137.59375 1022.609375 -149.082031 998.914062 -157.140625 C 991.828125 -159.527344 986.308594 -160.59375 981.578125 -160.59375 C 969.953125 -160.59375 963.160156 -154.15625 949.828125 -145.148438 C 938.925781 -137.765625 923.765625 -117.984375 907.648438 -117.367188 C 907.328125 -117.359375 907.003906 -117.351562 906.691406 -117.351562 C 888.527344 -117.351562 877.761719 -136.085938 860.460938 -140.609375 C 844.078125 -144.945312 827.691406 -151.453125 811.722656 -156.195312 C 796.152344 -160.871094 779.769531 -162.628906 765.753906 -169.953125 C 753.503906 -176.253906 746.394531 -187.300781 733.535156 -192.992188 C 711.261719 -202.882812 683.503906 -197.328125 661.089844 -208.164062 C 657.976562 -209.726562 654.859375 -211.347656 651.816406 -213.042969 C 640.304688 -219.339844 631.710938 -226.796875 622.023438 -233.980469 C 618.835938 -236.3125 616.136719 -237.199219 613.601562 -237.199219 C 608.039062 -237.199219 603.277344 -232.964844 596.027344 -230.78125 C 589.050781 -228.679688 567.390625 -233.085938 570.566406 -221.632812 C 576.394531 -220.6875 577.273438 -213.84375 580.722656 -210.722656 C 582.414062 -209.238281 585.191406 -209.566406 587.019531 -207.8125 C 591.757812 -203.070312 595.613281 -201.035156 601.304688 -196.90625 C 605.570312 -193.859375 606.515625 -189.726562 609.972656 -186.410156 C 614.308594 -182.332031 619.382812 -181.761719 624.746094 -181.761719 C 626.820312 -181.761719 628.953125 -181.847656 631.089844 -181.847656 C 634.792969 -181.847656 638.550781 -181.582031 642.203125 -180.171875 C 654.117188 -175.566406 655.945312 -167.902344 670.570312 -163.84375 C 675.425781 -162.46875 679.8125 -162.019531 684.042969 -162.019531 C 691.0625 -162.019531 697.652344 -163.25 705.292969 -163.503906 C 712.15625 -163.714844 717.621094 -166.738281 723.1875 -166.738281 C 726.636719 -166.738281 730.113281 -165.585938 734 -161.875 C 745.300781 -151.117188 734.148438 -147.648438 715.273438 -147.648438 C 684.734375 -147.648438 633.960938 -156.714844 625.335938 -158.550781 C 616.375 -160.449219 601.523438 -166.433594 589.53125 -166.433594 C 582.679688 -166.433594 576.753906 -164.472656 573.410156 -158.6875 C 564.539062 -143.234375 597.242188 -129.621094 612.265625 -127.042969 C 615.363281 -126.507812 618.109375 -126.285156 620.605469 -126.285156 C 632.421875 -126.285156 638.714844 -131.363281 650.449219 -133.210938 C 651.867188 -133.425781 653.578125 -133.53125 655.527344 -133.53125 C 682.183594 -133.53125 753.226562 -114.246094 709.957031 -102.3125 C 701.117188 -99.882812 687.664062 -96.542969 675.773438 -96.542969 C 673.09375 -96.542969 670.5 -96.707031 668.050781 -97.097656 C 660.738281 -98.320312 651.328125 -104.347656 643.339844 -106.179688 C 638.828125 -107.199219 631.238281 -109.03125 624.894531 -109.03125 C 619.0625 -109.03125 614.285156 -107.476562 613.960938 -102.3125 C 613.828125 -99.539062 626.011719 -98.523438 628.246094 -98.179688 C 634.816406 -97.234375 640.835938 -94.179688 647.136719 -93.4375 C 651.066406 -93.03125 654.988281 -92.695312 658.511719 -91.199219 C 661.894531 -89.839844 664.53125 -87.605469 668.460938 -86.792969 C 670.980469 -86.261719 674.027344 -86.082031 677.226562 -86.082031 C 683.832031 -86.082031 691.136719 -86.863281 696.011719 -87.003906 C 717.945312 -87.746094 737.238281 -93.03125 757.753906 -96.011719 C 766.113281 -97.226562 774.003906 -97.8125 781.628906 -97.8125 C 816.121094 -97.8125 845.035156 -85.8125 885.84375 -65.730469 C 897.691406 -59.898438 909.335938 -55.15625 918.949219 -47.300781 C 940.546875 -29.6875 970.335938 -6.917969 1003.039062 -4.277344 C 1004.859375 -4.125 1006.652344 -4.050781 1008.394531 -4.050781 C 1026.710938 -4.050781 1040.769531 -11.726562 1056.253906 -11.726562 C 1063.515625 -11.726562 1071.082031 -10.039062 1079.539062 -5.085938 C 1096.597656 4.871094 1102.347656 23.300781 1117.722656 34.621094 C 1148.285156 57.230469 1177.695312 62.453125 1206.324219 62.453125 C 1227.53125 62.453125 1248.316406 59.585938 1268.832031 58.8125 C 1276.089844 58.519531 1282.871094 58.175781 1289.574219 58.175781 C 1301.617188 58.175781 1313.425781 59.308594 1327.386719 63.96875 C 1347.355469 70.679688 1367.601562 79.144531 1389.199219 82.128906 C 1394.183594 82.796875 1399.402344 83.074219 1404.691406 83.074219 Z M 1404.691406 83.054688 " fill-opacity="1" fill-rule="nonzero"/><path fill="#3d5d4b" d="M 1351.804688 166.667969 C 1353.492188 166.667969 1355.3125 166.433594 1357.308594 165.894531 C 1364.550781 164.027344 1373.332031 160.402344 1371.792969 153.8125 C 1371.023438 150.742188 1370.371094 149.308594 1374.425781 147.667969 C 1377.171875 146.5625 1380.351562 147.007812 1383.09375 145.910156 C 1386.167969 144.703125 1388.253906 142.390625 1391.101562 141.078125 C 1393.113281 140.175781 1395.003906 139.832031 1396.847656 139.832031 C 1399.953125 139.832031 1402.941406 140.816406 1406.25 141.851562 C 1417.332031 145.363281 1427.980469 144.265625 1439.609375 145.363281 L 1439.609375 140.859375 C 1439.609375 128.671875 1440.375 116.367188 1439.5 104.179688 C 1435.230469 106.324219 1431.445312 107.1875 1427.9375 107.1875 C 1417.828125 107.1875 1410.125 99.953125 1400.429688 95.390625 C 1398.5625 94.511719 1396.808594 93.738281 1394.835938 93.199219 C 1389.894531 91.660156 1384.746094 91.546875 1379.578125 91.441406 C 1378.769531 91.441406 1377.890625 91.480469 1377.003906 91.480469 C 1374.929688 91.480469 1372.867188 91.261719 1371.785156 89.792969 C 1370.25 88.035156 1371.34375 84.847656 1369.917969 82.761719 C 1367.398438 78.589844 1361.363281 76.605469 1356.09375 75.179688 C 1348.300781 73.199219 1339.851562 72.105469 1331.617188 71.660156 C 1329.878906 71.578125 1327.539062 71.40625 1325.132812 71.40625 C 1321.464844 71.40625 1317.65625 71.8125 1315.59375 73.53125 C 1308.238281 79.570312 1326.675781 87.039062 1331.617188 88.800781 C 1334.136719 89.679688 1337.542969 90.007812 1336.4375 92.097656 C 1335.230469 94.183594 1328.316406 95.71875 1326.242188 97.484375 C 1318.554688 103.742188 1334.363281 105.386719 1339.078125 107.691406 C 1341.710938 109.011719 1342.257812 110.765625 1344.34375 112.410156 C 1347.085938 114.609375 1351.144531 114.722656 1354.988281 115.15625 C 1359.8125 115.601562 1367.496094 115.375 1371.007812 118.675781 C 1374.082031 121.421875 1372.222656 127.785156 1369.46875 130.210938 C 1366.179688 132.957031 1361.347656 133.609375 1356.851562 133.835938 C 1355.335938 133.925781 1353.820312 133.96875 1352.3125 133.96875 C 1344.679688 133.96875 1337.1875 132.867188 1329.855469 131.304688 C 1321.734375 129.550781 1313.941406 124.613281 1306.699219 121.421875 C 1302.53125 119.554688 1297.589844 116.703125 1292.871094 115.710938 C 1292.144531 115.554688 1291.460938 115.488281 1290.804688 115.488281 C 1287.25 115.488281 1284.445312 117.46875 1281.023438 118.675781 C 1280.050781 119 1279.164062 119.125 1278.347656 119.125 C 1274.328125 119.125 1271.929688 115.90625 1267.746094 115.90625 C 1267.527344 115.90625 1267.308594 115.914062 1267.085938 115.929688 C 1260.5 116.367188 1262.253906 123.613281 1264.773438 126.464844 C 1269.828125 132.042969 1279.636719 133.738281 1287.910156 133.738281 C 1288.433594 133.738281 1288.957031 133.730469 1289.46875 133.714844 C 1292.039062 133.65625 1294.835938 133.304688 1297.535156 133.304688 C 1299.554688 133.304688 1301.519531 133.496094 1303.300781 134.152344 C 1309.113281 136.347656 1309.660156 141.949219 1314.820312 144.148438 C 1321.1875 146.78125 1326.894531 150.953125 1331.722656 155.019531 C 1337.976562 160.265625 1343.074219 166.660156 1351.789062 166.660156 Z M 1351.804688 166.667969 " fill-opacity="1" fill-rule="nonzero"/><path fill="#3d5d4b" d="M 303.726562 4.234375 C 316.480469 4.234375 325.964844 -0.644531 337.101562 -5.433594 C 315.167969 -16.613281 327.21875 -31.652344 305.890625 -45.878906 C 297.839844 -51.230469 283.957031 -50.960938 274.683594 -54.277344 C 262.363281 -58.75 256.613281 -63.964844 242.800781 -65.527344 C 240.796875 -65.746094 238.96875 -65.84375 237.28125 -65.84375 C 226.984375 -65.84375 221.722656 -62.234375 211.65625 -60.785156 C 208.15625 -60.296875 204.8125 -60.0625 201.59375 -60.0625 C 164.441406 -60.0625 145.125 -90.953125 109.226562 -108.414062 C 97.3125 -114.179688 86.003906 -118.238281 75.246094 -121.015625 C 73.484375 -117.832031 71.863281 -114.441406 70.234375 -111.058594 C 69.5625 -109.636719 68.820312 -108.011719 68.070312 -106.3125 C 80.867188 -100.484375 93.527344 -93.300781 105.441406 -85.105469 C 115.804688 -77.992188 127.171875 -70.945312 135.839844 -61.527344 C 137.0625 -60.175781 138.140625 -58.886719 139.019531 -57.535156 C 144.644531 -55.972656 150.328125 -54.082031 156.355469 -51.980469 C 183.703125 -47.105469 230.148438 -49.878906 248.222656 -28.269531 C 260 -14.175781 263.316406 -5.980469 283.628906 0.660156 C 291.335938 3.199219 297.882812 4.226562 303.738281 4.226562 Z M 303.726562 4.234375 " fill-opacity="1" fill-rule="nonzero"/><path fill="#5f6454" d="M 103.902344 162.40625 C 150.769531 162.40625 190.257812 141.300781 220.640625 128.613281 C 235.25 122.445312 263.34375 113.226562 257.480469 101.371094 C 257 100.425781 256.355469 99.472656 255.636719 98.664062 C 239.269531 105.640625 223.617188 113.226562 206.679688 120.074219 C 189.753906 126.925781 177.089844 129.625 166.1875 129.625 C 140.128906 129.625 124.113281 114.203125 83.882812 103.269531 C 67.902344 98.925781 48.390625 97.214844 28.5 97.214844 C 27 97.214844 25.5 97.222656 24 97.242188 C 26.894531 102.941406 40.375 111.945312 34.273438 116.011719 C 32.480469 117.191406 29.054688 117.589844 24.878906 117.589844 C 17.101562 117.589844 6.691406 116.238281 -0.722656 116.148438 L -0.722656 132.003906 C 10.351562 143.320312 41.972656 151.449219 65.894531 157.617188 C 79.039062 160.988281 91.71875 162.414062 103.898438 162.414062 Z M 103.902344 162.40625 " fill-opacity="1" fill-rule="nonzero"/><path fill="#2a2d32" d="M 357.8125 36.480469 C 357.773438 36.464844 357.738281 36.457031 357.699219 36.441406 C 357.738281 36.457031 357.773438 36.464844 357.8125 36.480469 Z M 140.078125 147.964844 C 149.269531 147.964844 159.957031 145.265625 174.234375 138.414062 C 188.515625 131.570312 201.722656 123.914062 215.527344 117.003906 C 236.515625 106.371094 258.988281 97.289062 289.050781 94.648438 C 297.449219 93.917969 306.058594 93.621094 314.816406 93.621094 C 357.976562 93.621094 404.730469 100.957031 448.011719 100.957031 C 453.261719 100.957031 458.457031 100.855469 463.585938 100.605469 C 480.644531 99.796875 498.320312 98.097656 514.292969 93.558594 C 525.695312 90.324219 538.265625 81.882812 550.597656 81.882812 C 550.929688 81.882812 551.257812 81.890625 551.589844 81.90625 C 559.289062 82.199219 565.28125 82.582031 571.160156 82.582031 C 577.640625 82.582031 583.976562 82.113281 592.277344 80.554688 C 609.269531 77.363281 624.773438 72.621094 640.273438 66.664062 C 648.835938 63.355469 659.269531 62.175781 670.570312 62.175781 C 699.214844 62.175781 733.4375 69.785156 756.988281 69.785156 C 757.28125 69.785156 757.574219 69.785156 757.867188 69.785156 C 762.402344 69.71875 767.277344 68.292969 771.542969 67.210938 C 785.078125 63.691406 798.890625 59.414062 811.421875 54.0625 C 817.441406 51.488281 823.742188 49.386719 828.886719 45.734375 C 835.320312 41.261719 843.640625 39.429688 850.414062 35.429688 C 853.929688 33.328125 857.523438 31.503906 861.511719 29.945312 C 863.746094 29.066406 869.226562 27.773438 869.632812 25.402344 C 869.96875 22.898438 864.960938 21.472656 862.589844 21.066406 C 861.578125 20.878906 860.589844 20.789062 859.613281 20.789062 C 856.988281 20.789062 854.492188 21.433594 852.167969 22.621094 C 849.527344 23.902344 847.632812 25.195312 844.445312 25.464844 C 840.929688 25.800781 837.402344 25.394531 833.953125 26.476562 C 830.03125 27.769531 827.933594 31.152344 823.9375 32.375 C 821.972656 32.914062 819.871094 32.984375 817.90625 33.53125 C 815.269531 34.207031 812.5625 34.882812 809.855469 35.421875 C 808.1875 35.707031 806.269531 35.941406 804.351562 35.941406 C 801.753906 35.941406 799.167969 35.519531 797.265625 34.273438 C 793.605469 31.835938 796.175781 28.578125 798.34375 26.148438 C 800.039062 24.179688 804.441406 19.4375 801.050781 16.929688 C 800.007812 16.171875 798.710938 15.867188 797.292969 15.867188 C 792.667969 15.867188 786.742188 19.152344 784 20.660156 C 768.019531 29.539062 753.53125 42.679688 734.710938 47.894531 C 731.015625 48.898438 726.859375 49.457031 722.832031 49.457031 C 721.699219 49.457031 720.578125 49.410156 719.480469 49.320312 C 714.136719 48.847656 710.207031 48.03125 707.5 46.882812 C 695.382812 40.992188 710.410156 27.03125 700.863281 24.054688 C 697.261719 22.988281 693.605469 22.550781 689.890625 22.550781 C 675.023438 22.550781 659.261719 29.5 642.847656 30.425781 C 640.003906 30.425781 637.363281 30.289062 634.792969 30.289062 C 625.585938 30.425781 617.058594 33.605469 607.984375 34.289062 C 565.257812 37.441406 520.539062 40.714844 477.367188 40.714844 C 474.160156 40.714844 470.964844 40.691406 467.777344 40.660156 C 467.289062 40.652344 466.8125 40.652344 466.332031 40.652344 C 451.882812 40.652344 438.757812 42.617188 425.195312 46.417969 C 422.230469 47.265625 419.136719 47.625 415.972656 47.625 C 404.683594 47.625 392.628906 43.007812 383.425781 39.300781 C 379.566406 37.671875 375.230469 36.796875 370.90625 36.324219 C 370.453125 36.269531 369.945312 36.246094 369.390625 36.246094 C 366.742188 36.246094 363.105469 36.75 360.382812 36.75 C 359.371094 36.75 358.488281 36.683594 357.8125 36.488281 C 358.449219 36.675781 359.09375 36.871094 359.800781 37.066406 C 364.539062 50.136719 351.949219 54.273438 337.527344 54.273438 C 349.105469 54.273438 347.410156 72.097656 343.691406 76.425781 C 340.160156 80.570312 335.945312 81.957031 331.351562 81.957031 C 326.777344 81.957031 321.8125 80.589844 316.75 79.203125 C 310.585938 77.507812 304.632812 75.066406 298.332031 73.785156 C 295.8125 73.257812 293.992188 73.042969 292.449219 73.042969 C 289.050781 73.042969 287.039062 74.070312 282.152344 75 C 278.289062 75.75 273.925781 76.148438 269.488281 76.148438 C 262.707031 76.148438 255.757812 75.21875 250.191406 73.167969 C 242.34375 70.324219 237.804688 66.933594 228.664062 66.191406 C 227.511719 66.09375 226.398438 66.054688 225.328125 66.054688 C 216.246094 66.054688 209.949219 69.101562 201.039062 70.257812 C 199.585938 70.453125 197.171875 70.589844 194.359375 70.589844 C 186.546875 70.589844 175.628906 69.582031 173.484375 66.191406 C 167.800781 57.246094 195.753906 51.960938 186.074219 41.253906 C 183.660156 38.550781 179.167969 37.945312 174.308594 37.945312 C 170.363281 37.945312 166.1875 38.339844 162.683594 38.339844 C 161.191406 38.339844 159.828125 38.273438 158.660156 38.0625 C 150.199219 36.578125 143.832031 31.699219 135.847656 29.253906 C 130.238281 27.527344 123.039062 26.515625 115.675781 26.515625 C 101.097656 26.515625 85.914062 30.507812 81.28125 40.90625 C 75.835938 53.101562 80.597656 67.609375 65.203125 67.609375 C 60.503906 67.609375 53.917969 66.257812 44.582031 63.070312 C 29.007812 57.785156 14.183594 51.414062 -0.707031 45.109375 L -0.707031 116.726562 C 4.773438 116.253906 10.328125 115.914062 15.945312 115.710938 C 17.304688 115.644531 18.71875 115.644531 20.144531 115.578125 C 21.414062 115.554688 22.671875 115.546875 23.941406 115.546875 C 40.722656 115.546875 57.179688 117.257812 70.65625 121.601562 C 104.59375 132.542969 118.097656 147.957031 140.085938 147.957031 Z M 140.078125 147.964844 " fill-opacity="1" fill-rule="nonzero"/><path fill="#5f6454" d="M 341.878906 55.828125 C 349.195312 55.828125 355.808594 54.386719 360.464844 50.738281 C 363.242188 48.570312 364.457031 44.847656 368.183594 43.421875 C 369.226562 43.039062 370.320312 42.917969 371.421875 42.917969 C 373.25 42.917969 375.125 43.25 376.933594 43.25 C 377.714844 43.25 378.46875 43.191406 379.210938 43.015625 C 393.023438 39.96875 381.246094 34.746094 372.105469 34.476562 C 371.59375 34.460938 371.0625 34.453125 370.515625 34.453125 C 367.335938 34.453125 363.625 34.65625 359.933594 34.65625 C 355.039062 34.65625 350.171875 34.304688 346.648438 32.644531 C 339.402344 29.117188 346.78125 21.667969 352.878906 21.058594 C 353.148438 21.035156 353.417969 21.019531 353.679688 21.019531 C 356.492188 21.019531 358.808594 22.273438 361.410156 22.949219 C 366.488281 24.375 371.707031 24.644531 376.984375 25.050781 C 378.09375 25.148438 379.199219 25.195312 380.285156 25.195312 C 391.054688 25.195312 400.457031 20.667969 410.976562 18.882812 C 416.429688 17.960938 421.175781 16.414062 426.492188 16.414062 C 427.773438 16.414062 429.101562 16.503906 430.472656 16.714844 C 441.308594 18.433594 469.871094 27.679688 488.617188 27.679688 C 501.722656 27.679688 510.03125 23.160156 504.125 8.382812 C 501.625 7.785156 499.300781 7.542969 497.082031 7.542969 C 488.195312 7.542969 481.042969 11.378906 471.730469 11.378906 C 470.183594 11.378906 468.582031 11.273438 466.894531 11.027344 C 453.964844 9.195312 442.050781 4.519531 429.394531 1.945312 C 417.746094 -0.425781 416.121094 -8.832031 411.726562 -16.082031 C 406.101562 -25.429688 397.847656 -29.222656 384.710938 -29.695312 C 383.042969 -29.746094 381.289062 -29.769531 379.476562 -29.769531 C 366.707031 -29.769531 350.710938 -28.417969 340.160156 -24.199219 C 335.421875 -22.242188 331.230469 -19.324219 326.761719 -16.75 C 320.777344 -13.304688 311.914062 -8.003906 303.898438 -8.003906 C 303.386719 -8.003906 302.886719 -8.027344 302.382812 -8.074219 C 298.320312 -8.410156 294.53125 -9.90625 290.265625 -10.242188 C 284.304688 -10.714844 278.824219 -11.804688 273.207031 -13.625 C 252.890625 -20.269531 249.644531 -28.46875 237.867188 -42.554688 C 231.296875 -50.347656 221.414062 -54.480469 210.449219 -57.054688 C 200.90625 -59.292969 194.945312 -63.765625 185.878906 -67.5625 C 176.265625 -71.554688 168.683594 -76.84375 159.8125 -81.65625 C 152.300781 -85.722656 143.226562 -86.328125 135.78125 -90.328125 C 129.480469 -93.648438 123.257812 -95.074219 115.8125 -96.019531 C 105.3125 -97.375 94.621094 -97.308594 84.871094 -99.816406 C 83.65625 -100.152344 82.367188 -100.492188 81.152344 -100.902344 C 73.976562 -103.410156 67.273438 -104.152344 59.828125 -105.78125 C 49.082031 -108.113281 40.257812 -121.660156 29.855469 -121.660156 C 29.375 -121.660156 28.894531 -121.628906 28.417969 -121.570312 C 17.453125 -120.28125 6.078125 -103.679688 1.878906 -96.5 C -1.300781 -91.148438 -0.761719 -85.453125 -0.691406 -79.628906 C -0.558594 -63.839844 -0.691406 -47.988281 -0.691406 -32.199219 C -0.691406 -31.253906 -1.503906 -19.804688 -0.691406 -19.601562 C 11.761719 -16.410156 24.359375 -11.804688 36.882812 -8.484375 C 48.773438 -5.363281 59.722656 -3.53125 69.554688 -3.53125 C 82.332031 -3.53125 93.226562 -6.625 101.871094 -13.972656 C 112.992188 -23.511719 119.019531 -31.90625 136.179688 -31.90625 C 139.5 -31.90625 143.234375 -31.59375 147.5 -30.917969 C 177.496094 -26.039062 209.714844 -13.4375 238.894531 0.519531 C 263.878906 12.375 275.3125 30.125 297.523438 43.40625 C 307.054688 49.101562 326.101562 55.8125 341.898438 55.8125 Z M 341.878906 55.828125 " fill-opacity="1" fill-rule="nonzero"/><path fill="#3d5d4b" d="M 540.160156 29.050781 C 547.292969 29.050781 554.402344 27.527344 561.058594 24.992188 C 565.933594 23.09375 587.261719 21.261719 583.398438 14.28125 C 582.429688 12.511719 579.941406 11.964844 576.851562 11.964844 C 571.992188 11.964844 565.65625 13.3125 561.464844 13.3125 C 560.496094 13.3125 559.648438 13.246094 558.960938 13.066406 C 555.367188 12.1875 554.019531 9.472656 550.496094 8.660156 C 549.945312 8.542969 549.378906 8.496094 548.792969 8.496094 C 546.265625 8.496094 543.460938 9.390625 541.152344 9.605469 C 540.453125 9.675781 539.800781 9.710938 539.195312 9.710938 C 535.128906 9.710938 532.558594 8.285156 528.5625 7.167969 C 524.96875 6.222656 521.65625 5.953125 518.332031 4.730469 C 515.625 3.785156 513.054688 2.761719 510.480469 1.75 C 507.976562 0.804688 505.539062 -0.148438 502.902344 -0.960938 C 486.316406 -6.175781 468.984375 -9.558594 452.195312 -14.308594 C 443.933594 -16.679688 435.542969 -19.253906 428.027344 -22.84375 C 423.148438 -25.109375 417.019531 -28.269531 410.976562 -28.269531 C 409.058594 -28.269531 407.144531 -27.945312 405.285156 -27.179688 C 402.039062 -25.890625 401.355469 -22.570312 398.378906 -21.152344 C 397.222656 -20.605469 396.015625 -20.375 394.800781 -20.375 C 391.539062 -20.375 388.234375 -22.054688 385.714844 -23.726562 C 382.601562 -25.761719 380.367188 -28.941406 375.898438 -29.214844 C 375.214844 -29.257812 374.578125 -29.28125 373.972656 -29.28125 C 360.488281 -29.28125 366.097656 -17.378906 370.957031 -12 C 373.328125 -9.425781 376.035156 -6.78125 378.46875 -4.480469 C 387.761719 2.042969 399.660156 10.597656 411.351562 10.597656 C 413.632812 10.597656 415.902344 10.273438 418.144531 9.546875 C 427.195312 7.257812 436.53125 6.230469 445.890625 6.230469 C 455.921875 6.230469 465.984375 7.410156 475.757812 9.480469 C 485.03125 11.4375 493.902344 14.085938 502.773438 17 C 510.625 19.574219 516.992188 23.574219 524.503906 26.347656 C 529.625 28.21875 534.90625 29.050781 540.167969 29.050781 Z M 540.160156 29.050781 " fill-opacity="1" fill-rule="nonzero"/><path fill="#5f6454" d="M 597.097656 120.890625 C 605.832031 120.890625 614.792969 119.667969 623.011719 118.5625 C 634.792969 116.9375 670.199219 104.269531 691.863281 90.78125 C 708.316406 80.554688 717.457031 67.953125 694.03125 60.90625 C 679.621094 56.554688 665.191406 52.59375 651.035156 52.59375 C 640.71875 52.59375 630.550781 54.695312 620.644531 60.300781 C 603.578125 69.949219 588.078125 81.640625 567.574219 81.640625 C 563.601562 81.640625 559.441406 81.199219 555.039062 80.222656 C 542.832031 77.523438 534.378906 74.511719 522.15625 74.511719 C 520.28125 74.511719 518.324219 74.582031 516.25 74.738281 C 502.078125 75.839844 488.453125 79.234375 474.210938 79.234375 C 473.550781 79.234375 472.898438 79.226562 472.238281 79.210938 C 471.699219 79.203125 470.933594 79.195312 470.011719 79.195312 C 460.917969 79.195312 436.148438 79.96875 450.710938 90.796875 C 450.882812 90.933594 451.46875 90.992188 452.382812 90.992188 C 457.746094 90.992188 474.421875 88.988281 485.992188 88.988281 C 498.066406 88.988281 504.574219 91.164062 486.863281 100.082031 C 479.550781 103.734375 460.796875 105.566406 472.980469 113.625 C 475.488281 115.285156 481.371094 115.621094 487.460938 115.621094 C 491.660156 115.621094 495.941406 115.464844 499.28125 115.464844 C 500.777344 115.464844 502.089844 115.496094 503.105469 115.59375 C 510.09375 116.289062 515.84375 117.796875 521.738281 117.796875 C 525.605469 117.796875 529.535156 117.144531 533.90625 115.1875 C 540.695312 112.15625 542.652344 104.839844 550.996094 104.839844 C 551.980469 104.839844 553.042969 104.945312 554.222656 105.160156 C 565.730469 107.328125 571.210938 117.222656 583.464844 119.660156 C 587.84375 120.558594 592.433594 120.90625 597.089844 120.90625 Z M 597.097656 120.890625 " fill-opacity="1" fill-rule="nonzero"/><path fill="#3d5d4b" d="M 1290.496094 95.554688 C 1290.742188 95.554688 1290.988281 95.546875 1291.230469 95.53125 C 1306.738281 94.378906 1286.964844 88.214844 1282.292969 86.65625 C 1272.597656 83.421875 1263.753906 82.113281 1255.09375 78.476562 C 1254.128906 75.820312 1251.644531 75.59375 1246.074219 72.765625 C 1244.058594 71.722656 1242.355469 70.582031 1240.789062 69.433594 C 1238.941406 67.835938 1237.226562 66.3125 1235.304688 65.042969 L 1236.648438 66.304688 C 1233.199219 63.78125 1229.613281 61.816406 1223.546875 61.816406 C 1222.730469 61.816406 1221.867188 61.851562 1220.953125 61.929688 C 1219.46875 62.054688 1217.933594 62.117188 1216.371094 62.117188 C 1192.460938 62.117188 1160.5 47.550781 1147.160156 33.945312 C 1125.96875 12.265625 1081.082031 -14.292969 1044.867188 -18.226562 C 1042.855469 -18.445312 1041.035156 -18.542969 1039.347656 -18.542969 C 1029.066406 -18.542969 1023.839844 -14.949219 1013.722656 -13.550781 C 1010.183594 -13.054688 1006.808594 -12.816406 1003.570312 -12.816406 C 966.476562 -12.816406 947.160156 -43.667969 911.300781 -61.113281 C 883.078125 -74.824219 858.421875 -78.871094 835.183594 -78.871094 C 801.703125 -78.871094 771.183594 -70.472656 737.222656 -70.472656 C 726.949219 -70.472656 716.363281 -71.238281 705.285156 -73.242188 C 695.179688 -75.089844 679.566406 -77.714844 667.089844 -77.714844 C 647.894531 -77.714844 636.089844 -71.492188 663.046875 -46.609375 C 676.070312 -34.542969 689 -30.78125 701.738281 -30.78125 C 722.902344 -30.78125 743.566406 -41.160156 763.332031 -41.160156 C 765.019531 -41.160156 766.707031 -41.085938 768.386719 -40.921875 C 809.515625 -36.734375 844.773438 -16.109375 886.414062 -16.109375 C 887.882812 -16.109375 889.367188 -16.132812 890.851562 -16.1875 C 892.691406 -16.246094 894.511719 -16.28125 896.335938 -16.28125 C 914.625 -16.28125 932.011719 -13.222656 949.003906 -7.855469 C 966.609375 -2.226562 981.367188 7.664062 998.5625 12.945312 C 1003.976562 14.574219 1011.765625 13.082031 1016.910156 15.722656 C 1020.023438 17.285156 1019.550781 20.195312 1022.863281 21.613281 C 1024.011719 22.09375 1025.554688 22.175781 1027.167969 22.175781 C 1027.980469 22.175781 1028.804688 22.15625 1029.613281 22.15625 C 1030.820312 22.15625 1031.984375 22.199219 1032.949219 22.425781 C 1041.542969 24.324219 1053.804688 25.875 1057.589844 32.660156 C 1062.734375 41.808594 1061.105469 50.339844 1073.15625 56.441406 C 1073.425781 56.578125 1073.695312 56.710938 1073.90625 56.847656 C 1083.421875 61.304688 1093.246094 67.226562 1103.144531 67.226562 C 1106.347656 67.226562 1109.554688 66.601562 1112.773438 65.117188 C 1120 61.695312 1127.347656 60.113281 1135.273438 60.113281 C 1139.4375 60.113281 1143.761719 60.554688 1148.316406 61.386719 C 1155.355469 62.746094 1160.5 67.015625 1167.8125 67.554688 C 1168.613281 67.625 1169.402344 67.652344 1170.171875 67.652344 C 1174.785156 67.652344 1178.976562 66.601562 1183.347656 66.601562 C 1185.441406 66.601562 1187.578125 66.84375 1189.820312 67.550781 C 1194.964844 69.109375 1198.015625 73.785156 1203.09375 75.070312 C 1204 75.292969 1204.898438 75.382812 1205.785156 75.382812 C 1209.066406 75.382812 1212.21875 74.160156 1215.480469 74.160156 C 1216.632812 74.160156 1217.804688 74.308594 1218.996094 74.730469 C 1220.894531 75.40625 1227.730469 81.167969 1228.746094 82.585938 C 1230.777344 85.230469 1227.183594 90.714844 1229.285156 92.890625 C 1230.722656 94.332031 1232.027344 94.902344 1233.234375 94.902344 C 1237.179688 94.902344 1240.113281 88.855469 1243.636719 87.609375 C 1244.984375 87.144531 1246.53125 86.96875 1248.15625 86.96875 C 1252.003906 86.96875 1256.347656 87.945312 1259.816406 88.425781 C 1261.519531 88.621094 1263.246094 88.652344 1264.96875 88.652344 C 1265.613281 88.652344 1266.265625 88.652344 1266.910156 88.652344 C 1269.28125 88.652344 1271.636719 88.695312 1273.902344 89.175781 C 1279.292969 90.347656 1284.683594 95.570312 1290.496094 95.570312 Z M 1290.496094 95.554688 " fill-opacity="1" fill-rule="nonzero"/><path fill="#2a2d32" d="M 1305.167969 53.914062 C 1310.472656 53.914062 1316.65625 51.632812 1321.132812 51.015625 C 1326.359375 50.234375 1328.925781 48.898438 1333.589844 46.898438 C 1337.601562 45.109375 1343.15625 45.003906 1347.5 43.773438 C 1354.839844 41.769531 1362.078125 39.765625 1369.417969 37.539062 C 1385.328125 32.757812 1401.007812 26.628906 1417.8125 23.851562 C 1424.929688 22.738281 1432.277344 21.507812 1439.507812 20.285156 C 1440.503906 20.0625 1439.507812 0.691406 1439.507812 -1.535156 C 1439.046875 -1.035156 1437.667969 -0.898438 1435.980469 -0.898438 C 1433.726562 -0.898438 1430.921875 -1.148438 1429.0625 -1.148438 C 1428.574219 -1.148438 1428.152344 -1.132812 1427.824219 -1.085938 C 1423.039062 -0.53125 1418.472656 0.699219 1413.800781 1.472656 C 1410.683594 2.140625 1407.578125 3.257812 1404.457031 3.917969 C 1404.121094 3.917969 1403.789062 4.03125 1403.453125 4.03125 C 1402.6875 4.167969 1401.976562 4.226562 1401.285156 4.226562 C 1399.195312 4.226562 1397.371094 3.703125 1395.109375 3.363281 C 1391.972656 2.964844 1388.34375 2.605469 1384.714844 2.605469 C 1380.238281 2.605469 1375.753906 3.144531 1372.191406 4.8125 C 1369.636719 5.921875 1368.40625 7.144531 1365.179688 7.707031 C 1361.167969 8.488281 1356.835938 8.59375 1352.832031 9.15625 C 1338.816406 10.832031 1328.691406 16.0625 1316.785156 21.292969 C 1308.335938 24.847656 1294.425781 29.972656 1293.871094 38.550781 C 1293.644531 42.335938 1295.203125 49.574219 1298.871094 52.238281 C 1300.640625 53.46875 1302.808594 53.914062 1305.15625 53.914062 Z M 1305.167969 53.914062 " fill-opacity="1" fill-rule="nonzero"/></svg>